<mxfile host="65bd71144e">
    <diagram id="2M5eugQF5v8jMoKEYdmR" name="Page-1">
        <mxGraphModel dx="912" dy="536" grid="1" gridSize="10" guides="1" tooltips="1" connect="1" arrows="1" fold="1" page="1" pageScale="1" pageWidth="850" pageHeight="1100" math="0" shadow="0">
            <root>
                <mxCell id="0"/>
                <mxCell id="1" parent="0"/>
                <mxCell id="2" value="http://ics2o.mths.ca" style="swimlane;whiteSpace=wrap;html=1;fillColor=#0050ef;strokeColor=#001DBC;fontColor=#ffffff;" vertex="1" parent="1">
                    <mxGeometry x="40" y="40" width="760" height="480" as="geometry"/>
                </mxCell>
                <mxCell id="3" value="" style="rounded=1;whiteSpace=wrap;html=1;" vertex="1" parent="2">
                    <mxGeometry x="40" y="120" width="140" height="40" as="geometry"/>
                </mxCell>
                <mxCell id="4" value="&lt;font style=&quot;font-size: 18px;&quot;&gt;Enter the base number and exponent number:&lt;/font&gt;" style="text;html=1;align=left;verticalAlign=middle;resizable=0;points=[];autosize=1;strokeColor=none;fillColor=none;" vertex="1" parent="2">
                    <mxGeometry x="40" y="60" width="390" height="40" as="geometry"/>
                </mxCell>
                <mxCell id="5" value="" style="rounded=1;whiteSpace=wrap;html=1;" vertex="1" parent="2">
                    <mxGeometry x="320" y="120" width="140" height="40" as="geometry"/>
                </mxCell>
                <mxCell id="6" value="&lt;font style=&quot;font-size: 18px;&quot;&gt;to the power of&lt;/font&gt;" style="text;html=1;align=center;verticalAlign=middle;resizable=0;points=[];autosize=1;strokeColor=none;fillColor=none;" vertex="1" parent="2">
                    <mxGeometry x="180" y="120" width="140" height="40" as="geometry"/>
                </mxCell>
                <mxCell id="7" value="&lt;font style=&quot;font-size: 17px;&quot;&gt;CALCULATE&lt;/font&gt;" style="rounded=1;whiteSpace=wrap;html=1;fillColor=#FF6666;" vertex="1" parent="2">
                    <mxGeometry x="40" y="200" width="140" height="40" as="geometry"/>
                </mxCell>
                <mxCell id="8" value="&lt;font style=&quot;font-size: 18px;&quot;&gt;xx to the power of xx is: xx.&lt;/font&gt;" style="text;html=1;align=left;verticalAlign=middle;resizable=0;points=[];autosize=1;strokeColor=none;fillColor=none;" vertex="1" parent="2">
                    <mxGeometry x="40" y="270" width="240" height="40" as="geometry"/>
                </mxCell>
                <mxCell id="10" value="" style="shape=image;verticalLabelPosition=bottom;labelBackgroundColor=default;verticalAlign=top;aspect=fixed;imageAspect=0;image=data:image/png,iVBORw0KGgoAAAANSUhEUgAAAbgAAADhCAYAAAC6PKA4AAAAAXNSR0IArs4c6QAAIABJREFUeF7svQmcnWV5Nn4/27uddbYsk8lCGEhIMAIjIop1UKSyaIs1tNW2n+3v+1QExFqXupGhVSL+21q1f/2oVtG6AHGriojWGmQnhCWQsIXJQjLJbGfmzFne5dk+7vfMxBjDkhAChPf9eX7g8J73ed/rec65zn0/133dBLIjQyBDIEMgQyBD4AhEgByBz5Q9UoZAhkCGQIZAhgBkBJctggyBDIEMgQyBIxKBjOCOyGnNHipDIEMgQyBDICO4bA1kCGQIZAhkCByRCGQEd0ROa/ZQGQIZAhkCGQIZwWVrIEMgQyBDIEPgiEQgI7gjclqzh8oQyBDIEMgQyAguWwMZAhkCGQIZAkckAhnBHZHTmj1UhkCGQIZAhkBGcNkayBDIEMgQyBA4IhHICO6InNbsoTIEMgQyBDIEMoLL1kCGwCFGwAI6BA2Qy2AAVgHYfS9P9vO3p7qFawFY16JFwufcKbguj+OYFQCgSqnVlFonirQTBAoAko2bNunzAQwc4BiHGILschkCLwgEMoJ7QUxDdhNHEgI/6+11WRDwxc15qndzXgGsgU3LljF8xpFNs8yN0G8GYABJ6GmPAQD6pt7evGvEbApkgQQzm3HIEWKZ1DKxYBPBnJonxGjDmB2R1hNDK1Y0z1+zJiO5p0U3O+FIRyAjuCN9hrPnO2wIYOR2VX+/+5qd4WtLWp3aGcdzKQkTsEoCBQDmCcmFaACLdjfCB61Sa5eNDj661w0SvMbWRf2OqW9fUPLdZW2uf/Lk7p2dUkVl6rAi4TZQVgutFSGUGkG5tsYmURiF3AtqtlAYkaXy1lFj7540fPOWPB199/r18rCBkA2UIfACQiAjuBfQZGS38uJGYAAG6PzX/DJ35pR9rx9Ff52frC5mECYEpASg1jIhJHPckPCopu19kth/ejSAn5+9eXOMxHbLkiX5WaHpKoRkCSTRyzxKX1H0vNfWJ8falGy6QgAwDqC1BK0VMEaBUg5KW4gTCSTIgfVzk9IPttSluY2CcxenYuOu9vLWanOkiuO8uBHO7j5D4MAQyAjuwPDKzs4QeFIEMJ24rL8/eGOk/4HU6hfEg5s9R4UgiEnJSFoGCXDQwgNRKIOk9MM7lb3qpN2bR3/d38+LW8aOKRp9eluk30OazcUsiXIuaNAmAQsSKNUgBAECBqw1QClAogA0siMnANwFZSnEmoKmLhCR36K9wi272vLf0dTe/aoH7hjOpi9D4KWEQEZwL6XZzp71OUUAeeb63l5nueOsYs3wve7w7qIHinDQYA2AJQy0ZaAJB8s9UJz9qwy8b94ytG1DcUHH6XPq9uxyRM4sa7aA6jggRjJBAAi1YEGBNgocQQGMBWNaW3hIbhoAFCHgugLAENAST6HARTEkXrFSzXu7dvv0K4+2ub88/847tzynIGQXzxB4ASGQEdwLaDKyW3lxI4AE9+99ffyMifHLRBRdmKtUCg61hFgDVmsglgJFcgMGsbFAPPd7tuD+qOmLdWNx7T250L6pFMJxKEshRoKxKtVCCkGBIK+ZVuSGf6OozcQXJYDyyUhr8D0BDDf7JKYxDQB1QYsAmn4OqgXvp/W8e/WuhXO/d+f118uBltIyOzIEjmgEMoI7oqc3e7jDicAMwb2pMvZpEccX+5VxD4kpJSWlgWoCLuPAKYNGkgDz3LtI3rsjDMSmZty8yE3McYXYglAtItPGgDQGHMGAMwpACESxAkxSCkqBGQDCKChroCklOA4HwRgwQ0AlCmKjISEMDM+DbGurq8D73k7PuaxT1Xcdk+3HHc6lkY31PCGQEdzzBHw27BGJAPl1fz87fufOT/M4utgbH/OV1aCUBq00BJSDQxlQQsFgmpFBUzmsaV0WSqu6SKQ8Hilg1gLBqI0zoIxCEkrQygAhBLjjApbZWW2BaUxfErBgINESd+aAMyRRBlYbUNqAIRxEUISmJibkzvpGufgdRuCaRdse3HVEzkD2UBkCeyGQEVy2HDIEDhECMxHcn1QmB2gUXuSNjxYIpQQjMSUleKRFbphZxLQicwRYRkBajcEZEKUBpAIhBCQYwYEFwSlQw4BoCwbTnI4DCslRG3CIgHRzD8x0ClMBsRZwBPxgG4u5TApMeCAVhUh4Y7VC4d5I8I8P9XZvOH3t2ugQPXp2mQyBFyQCGcG9IKclu6kXIwJIcGuWLRP9tcYnRRxdIEZH2gXKHlEiIjEyI2kUpglADAaE66WEpxNUSBKwFsUkANQREFprYmtiTlQtJ3IxN0SaJDEJo460EFhjcx5lHihNiNUgGAD+E/f6kPwYw8gOr4YfcQLECoicAOq5/Phk3nvfyKzy/5y+bt3uFyPO2T1nCDxTBDKCe6ZIZedlCDwNAi2CWyneGN79SR6FF7CR4XZiLaFAgBIC1higjAEwBrFVaYTFCAOHOiCVBoNkxxnUUZRSKkQ27w1Vo+geZmAHtXQcgMRAaacgdInQZjlvNBa6SnGmsJY8Age36VJjMAuOR0Epm75SoQoRkAgXar4/NdrR/sWJcv4Hf7B+/d3ZpGYIHMkIZAR3JM9u9myHFQEkuPV9fXxxpbKKRs0L3bHxktVYHEBSkQgWZ6f8Q0lLBol7baistDwtHZBMQER5vUbpTabg3UHyzsZGsznkENJIjEk49TUQcANKiqDlPGjGJ3lx81xXq+WuTYBoFKe0rt8St9i0pABFKZwKiBmHSc7CydkdN0S53Nf6Nmz8yWEF6HkYLPUFXbmSXn9PnR+D/p2l+aZv/ZWoU01jW/w1MDAwQFcNDNgD9Qh9Hh4nG/IAEcgI7gABy07PEHgyBPDLdG1/P3vZtscuY2F8oVupFIlqRXBIcMqi9L/lvcwppO5d1hIwmoEROYi4M1anfOOE4/9Q+nxtVSQPn7516373ye6bPTsntLekHE++x9XJOYFJukG2SggMbujh9hvy6PQ4OFpCGdQFl/VZXZuk535+6aaHv36kz+bg8cfP9g1bWATTwYiwylgVJk2tfN9qZkmDWsp8z0oKOxqh3jG4eHG8cs0ak5HdYVkZrYRDK5H+e6bkh+IOMoI7FChm18gQaJWlpQS3fNtjl/E4vtAdrxSZxDptAoRhMTZGcBi1AaDxCMNPtSEgNQflF0yDu7fuFOzasL1400jO2XrevfdOPhWZYmSy9Te/WemFzbd7cePNrmlVfWscL43aCGZDgRELiTSgGAcd+Dpsbx8xjntF98MPf/4gJ44MAJDX9ffTQq1G+tavV8/VF9RB3t+etw0dd+IfONS+NaeS4zkhWoONG4mk2ndMTIHHYB1w3cRw8eOKF/w0BBgb7eqSGck9W+Sf+v3YIaOn51SnLa8DYquJZixevmlTcqhHzQjuUCOaXe8li8D+CY6kBIesJpkCS1DlCGkNG0ZxBijEitmw3DYaud7VI0x8MczxYTl3bnj62rUotnzSA8fbtGDBsvYkOt9X8lJWqwNXFhjlWBUOFNWVBK2+AJS1oAgF5bqWdMwJifAu39wefPYV69fjGAf06xktyV7ef0KxwAoLtCV5x9C7+9eujV9oJIf2Z8fvHl1JZHyxnZzopVZzINbEWhFj8bcFJZpzGlNirHC+7s7t+UrF2sFk8WKOoL96zZpwL/Dxu/KZ4ET6+/vZr9euRS1Rev6TpECf6fVeVJ8nXJPnr1xJ1zxNN4sbjz5+vmvoKSVr3s4dfhfz+X8vvu+uO2cCOkyvE7InwDtoDDKCO2josjdmCPwuAnulKAdoHF+EERxXhBDTqlVTXIOlLQk/lZCWACANNTUzjfby7XHO/8ZDnH/jrM2bk2dKFje97GVtC8fH/9gz6gv+VN0XUrPU5cTgdp1JXxjYYc5NUwba8YGXZ2kr3MvvJOHl/Vu3PlNiInf1dftOwucIQ49xKF8eOf4iyb1J6+f+5YS1a6vP9J4Px7pBUjn3Jz9hi6Ya72Aq+YAdGz2WcXCBwkQo4wcJMG4pp0YIGwpOjeN8Txfbr9nV3v44ZpALhQL1H3tMLdu0aSY63UNuqZgIgK4EsGtWtrbyzl8D5tqVK+nE4CD+foFd69frGbeYa1euZF2jo6LdqbBK0q5vfKJKZOCpf7yQawHo4r4+LHqEwfXr45WtKXw6gt1DmjNrcXRkhHbNmmWe7scSjnPtSmD5e3p5vasrfQaoVvXKTZvk04w7wyGYfGdrli1j+SQhdcex0OpNiE5yv3PgD6Q/6l76KkH0ypKy7xC++JVbzH23vOGun2xatkyEvm8P5ofX/tZVRnCH49OWjfGSQGBvgmNxfKEzXim1CA61HgYsx6+AaY+tBDsDMDCEQaiZmmovX1UvFK5ePvjIrw4ELPzy7LvppjcxC1/sbEZzRJL4VioAIwF/AKf1da1KATBMgBE+sEKH1dy5/L917fJzh4bCp/oCu6uvT7RNTATUKbaZpNJjdLKCEvsawZxXa893Ejd3OxD67mPXrx9/Bl/AB/JoB31uSkArV9LFg4P0mGr9T0HGf0sqlWWCE04F2dhM4v9wPd81jsOU65uk6PPIirtjS+92lFJM0i4KpiBBQmTM7lq9PvGKoaEmXndzb2+hU4g2wliXVMRGzFS3KTU8tOLh5skbT+6yVM9yrCVuPRpp2kYUGRN4Hi03pS5aakTCSI0E/s5K+/zK3qSTrp1Fi9zuxMlTZkrgOsVmI8xjKNlN/Hqs+eSIaycfOmXp1Plr1qSkMfOcL3v08fm0KT1Ra4Y6JycK1noNa8sgZTExsQDDEoexqSnOR3VHR+MVv98+ieyYN689duOO2LB25QcOhvWaQMSNHamLQnWX1o3zp1OIG5ctc6gxhTZJ5so4iaQwtbzvN2ytNlspVWpq7dpSYELOGlazCcH56JpNm9RAKqsCuuWoozpZTb+FavsXOalf6eXEbaLkXhex8IYRt+g3mVcZKxS29e8VBR/sYsgI7mCRy96XIbAPAvsjOKEpwXyYMQoIwzq4FsEZ1PHhnhjjEBOeVIu5VaNtpR+94pFHHjoQYHHMR+bOP40Yu2p2o36iJ1U7MeicEgPQVscBPDimJy2B2DKAUjtoLj51W8H91FNFi2mz1aOO72rnsCIv6LmiUT1NN6cWykbD5cLxpB/cFubL15QC76o5GzY0DuS+D8e5SP5n3LXhz2kSf4CMjR1HqK0Bh+s1E5eUcSLaACagDarFIuG+H8MU+KGjTiqG8p1Uq5dbHVUjYq9NiPxV7+btm1Ah29GoviZgzptzlL+tmViWGHNdrM0/OUltB2/vPp9a83YidYdKwu8kYX0bcLKMMdqvkqg7jptKeu4m7Yprat2dv37tzfdPzOCAPySSyC4sTU2+1iWk33HcvlplwnJlSVe+jTYAbo4Yv666ZPbavtNOq5GBAXNlX59wdCF3ipGreRIfzRv1+53A/amRjeOMjM8AKZepJA4MJXUSeI9EQe6rjZK77lV3PLCnq0SLJIGetG72SqHNmwjYkxPHLSaUMk3oCCVkrfS8/57wSveefscdO/B+71rWtyCv1R+UkuhD2qqHjE1uzAXu3bQZn6+lPDWxpkf7fiMSYluT0VsnqfM1U6+Pjm7dKvsWL84XlPpjUg3PZ5F+vWONC76dMnk+YQq5idgvyoS7123xgi9rxiaeSeT5VGspI7jD8UnLxnhJILAvwQmM4AwhNM0RGmCkRXBpQTdGdZSB5Y6W3GvUfOfiwXLu56957LGRAwXr4fmLTybWvL+zMnm6SKK5YDW4WCdA0QsFjZ4NcLT3QpJjwupcUWrOV2906BWn7tgRTUdeZGBggGBaz8STc4oSjhHN5OWsLntBqcUU1NGu0d0OMTkUr2hjQQr36qhj1pURqNteKN6WaVnAtCoPCe6Ndz3wdpLEH4Sx0SWc0yp1+A1+ufihMcdpjgPAVs4FmcdiJ2mPe+NYNBp0wTyQq0yzflZSGSbU6vsB7H9WOtjVTJd8N6y9m1L+ds/xjpHUH1WUf1tH5tPFqSo4HYX3G6PfE9drgcvpRmXN1FQSzgJKeqyReZQTUd+rWC+4XTr569atOOGbKGZBc4DjXXduR5hcoiuVk1WjscB67iyVGMsMIQFziWZ0Z8LYA4ngN+oiu3rJ3Lkj62s1J47dufMrlX/jcXyyEzXGhMsea0LSIa1ZKChpNyrhYK0UrjsR57zbI8f9wbZy188qCxdOrlyzxj5YLB7taPmWPDWvdxldzhw+RwY5JwZCEqmaNkp2SD+/IfGDX+5YvPh728bGaq+r1Bd7iTynEIYfFVTFnMPjTNDhWqiWJEp3a2sLTFCpCEwpwh9lxbafAPAf02hqVzMMe0UcfbBg2WmeIXOTJAIIiFYB17EQiuU668YNrh7PdXxWJdWR/USbB/TxyAjugODKTs4QeHIEfpfgogv5eKXELBJc2u4UGO69IbmlOynoaELBcDcBrziuGP3f9+Xg16/esWNvYcMzgnvjwt4TObHv6RgZO1vEcQ8FDT53UkMwbI6KXQiQ4FDKqTm3UCgkmosrNlv92RXDw03sgHBqkuRFo9E1l/P5YRwvjZPkBK7NySSUC2ksy9RI4EaCwxk4ngMGhTNCfMO2tf270XqwxrkGKKT/mzkaGnUWeDTQkqz11Do4oO8c20xzus/sKOQhiVl4s1+LsYs57sNd9I3v/AXEyYfZxESvECxijnOvdrxvWMIbUrgsFtyTOXeCUPbAbXf3bFncF7nH2eH3m+r4n8qR3Su4UTFQco3OeVdZxgMVJhcYS84xiG9Q+jmI/Lfmbr73u1PFnnK+wD8JUr0vqk1S6nClGBuvK7lFGd2kVpYENd3Mdbti4VYT5v0iH3R9qCOpjm/msztdkrzWS6b+kTSmFptGoxkRGCRUTHDCuLBktibQrQVXWrgbhCc+TTisn+RzwpjGC+fu2vVvXCav4yqx0mU6Br1dW/W4L3ispJxDjJ3DCemKgqAWe85Vj3S2fdFMxY+fQGnBjI2dbpPkkwWVLHKojYTgg6ZYqIQWSBQlHRDLpaEXhKHnrx3tmPd51zUPdO0cXZiL5VtyUeMDjKh2wq0Cx2lWI/1oJM2kscbNCVhitC4bwkJWaNtkCf1UJWmud7ReZMPmxQXK/8CnrKcR1oH6fJf2+e4mQEXkZzWpW/jVuFf6TrWURXDPbOFnZ2UIHAYEZghuxbbHVpE4uohPjJeIAYIWXa2XAdyPI2nZAE89JYH5TV7q2AHE/m8Y3XLzwexjbVx0zAkGzHvmjIyfk1OqB5UUlKI9WAxaY7NUAIHpUAsQgYGgox2Ai9Xjxnx69vBweMPy5eVZcbwklySvmyPEW22zuTSu1wsMlZjSgAAA33UBf21LbONDAHw/D0SI64zj/TChfGfEudWui03pQCOxWkuY1oCsjv8fW4kbSo2QlKK7CyO4Ifm7h7ZpNcVvDwJWYaj4FAc6kuH7cCDH89HKbPAx1dj1h9Mp0x0LFvwVVeYjTm2qlxPuMO4kwMUUUEc/USrhW9cNdOBsN4x+tvPu2/4d8b/9+KNW9EzV/6wYR3/Pak3cydxkA/cewlyuItmXaHv0FHOsyucunOqe86OT160b3tzb6/TWo8tAqw+ZuEGnotBGhNzo9Cy4Qlv7mJ7cdSJo/afUmjMTTfKG8PVtc476R6rgjpgXVkgZXqImdr7Gd0jJ8ZxHp4z6VwB+W7vLCtbot0xNVs5nRMwXbm5ECf8aAPGt4Zhv4jnV01Eb/7Kwpp9aa0ZM0jSMf5V3zP4GTE7utpa8hTSbb4Uw/ENwPdCOe9VEV9s/O7ncljnV6st5mLxNJPHfuioBqtQvQim/aLS+JZwzh3tSnsas/scpBQsbzN1S65r7XVDs23NqU+0+kecVrLw4DifbYh3XEz/YEQv/Hyr5znVFEnflGrXLaLPZR2JZItQJgdGLwBPf375gQZyMjZ08Jw7f40j5l7LZAOM7P7Sl/I9srvOWOueUmqD68g23HnAmY3/L5IB+TR2G74hsiAyBFy0C+ye46UJvgqbJNjVNBiQ77oDEf2deVbR3bgYLF5HhzbcfzMOv6154IgH73vmVylkFZeZ5qCoxrQapWJaAY2EFGBaZa04tyQfKCnbFVuH/3yHHHMcsfUvRwMmzE9POG/XZLIlzxBqOLXms0ikpC8FBKpV2LCBYXEcFaEpHEwLDitJIpl0NUBWK4So+KxK5AeymYDgqOAGU0SDAAYbxJLLkfo6ZFGMa7bV8qZ/2wJPSaBiIZcXctd7c2T9fcOutD+C1xpcc9Q6TqA+b4bFjgXLXchdjUaUNA8scSl2PsnK+YQS9POlp/1zv9dcntyxZkl9QGz3Vl+qv8/X66ZyQnOF8qploYi0rWeYMV4L8j0A433r0hGUbz7r++mTD7NnBEk1WgZYfiOpTzDB6v3bEj6I53Ve6nFfj0R1zvSQ53SbxPxDKZ1PqPJgLiv8Omv4s1uIkZdUnwsbYYifv1XPl/I3V2HzSDaIhEfqCMbPI1GuXa6VPtZZTt1C+nzH2mSEGNwjJO/nkzqsYhTdQBs2aI25NOPs6CTp+CgCxCZPTvGb0pzyJ/0+6+yv49+OO8v/fqNfvnKfoH/IkfjuJoz/xAx/NCH5htLxSCjEGnOOaWQrWXDAlzeKQuRVZ7vqloeZznWFDqEZ0rgmrfyeIaqeCPSrbytfElK0Zbp+9uVCrteXi8G/ExPgfO7E80XN9Qz3vY6aj4xrv+ON3rL3vvmNm16fe5yTJBTZqAssH1/Kuzu+OOIVf5Osec+cKedQhMgLPCO5pPz7ZCRkCzwyBfQlOVMZLxBqCERt6Ubbk+9P2XBhRYQZPOONOqeN+oORDZNfgXc9spN89a4bgFoxXzsopNc9FBxODhIZ7cKjWFIDFcEhOWERgC36sOfvsto7C/x3RphcMPa+s7Wnd0s634+NtTEYuJ61OBkbZlOAcwSFBdaZFVxYHLOUgOZ8MBZ1sOEzGghL00jTY2AD3GvEWNcppLFgsy6N4C9ryNFmK3i6//9XTMof+3WN/5+17DuJu0cUaCLAgd5U3q/2/Ft900wb8++TSRX9lpfyIHhk/WnGHSu7vkpbdLjWzmjgAng+sGEjq0h9McfmTmT2fxzs65gmqTmtP9CeoUccbrSCMMSJ1miC8m0fK5YGQ2YdWbN8+gWKcP1uyJNdTbVxqk/hvG5MVxnL+r0U+uHpnW+dVyzZtkmOdnXlh5SksSb5utOkhQAf9fOkH1rJvRzI5yRh9eRQ22mnO3ybay9cZyi9t37y5hjw/VSyWc574XBTGZyplOrz2rlHK+Ed3Un0tNKDsNkb+k1N7BuW22iz4VwPn316wZfQmxOnehctOLIaTf86j8EPUagCH/QTai1c6onljsBtW2iT5K2hG/V6pgHP0ULPRvNXi5i1nwAlpBwqnNIztlI43acqzbmfGrsrJBkA4dU5UnfygYKSdumJ92DPvCmXFzYsefHDXY4sXl4zVbytUxv4ySJLX5YQL4DiX1ovlq2/o6xssP/rA4nnjtfc5cXyRqk2BUyp9z5/T/e3ue+/9EaosL3vixg9VQ96M4A7mGyV7T4bAk0Qf6GQyk6J0kODMdKiC37ateu+UJLCzd7qPxZwRL1da9wQbfZJMDt1zMMDeu3DhidTSC7pHRs/ypewR2BcOicXoVNCCHQvwyx+l35IRS0pBbAX7zD0l+i9hvkhB8ZfNifUpsxI4zY6NLSUynMWIDjgF10hDqKEQCAekVEA0AUEcDIZAet6GatG7Z7ggavXAJZIxYpUlIi00R5cWS5jgmDC1aWRH0tavaXufJ4neWs7QB3iQJzZ4OBDqgwBJ4RcxMXe8+rbbdqYEt2T+X4OSH4NKdUHsBzIJcjfF5VkfrVqhEicHKgjICLOJIcnI+TfcUJkZesuiRR7TfF5PFH7TxvVTVVgjmFKmbjBCneC68aMXXHTz4sUxSvaR4FYuWxbMr8WrrIz/tl4ZZbyQ/x+3mP9Oacu2r2M8bRct8lTS7OMavtOo1RcopR8vdHTcQIFdWdf1k4wx/6SbSWA8/0EoFH5cZeyz/zk4WFsFQGrz5pVzGj6VNJtvSpSa77Z11ihnHxzW0XeaIbSX4/pVlOgzCDMTSTm4Urn8+wse3pX+WLq7d/kyrzb2djcKPy6mCU51lr9SsM21hRH7F1bKvzJh/ConH4C0Jppqhg1imaGc4S8VqgGb5lIr/aBiO2fdz7VZVQzHOMTJW3Sj9n6w0G6ouH1i0YJPgIL7ljzyyNijvb3Fuo3fOrcy8Vf5JDndxx8+rviYKnR81zv55Md/MfjQMYsqjYt5GL03Hh8Hr630X/nu7m/PuvfeNXtN/SEphM8I7gA/TNnpGQJPhsDvRnDhRUhw1NiZyoBp88mW/ySlLYIjTAx7ucI6oPRSMvpsCW7kLF8mLYJDtaYxGFEBoVgiYEGj+lEI4IVAW8Evv486q+PeXplUKu5sEpXzMZ1DqvWFgiav5sS+nll9XFJreiTWUHZ9cAwDkBp0ooA7ARjH+Vqts3zlsA+7awVuZtQxPvgHvUgOWGGD+4NI3EpRJ5djvjGTSRjWZyKx6pKed9hYfigZGV9K20pN2tb2s4QG7x7M5aZZtgcedkdtrqtLztSX4c0/3HPsPCBw2lG1qU9A1DhexvW0uSzzgtjm8rdMHrXw467vP9S2du1k6iizbJmYH5tVoOQHzVRVaIetAyG+07FjR2qH9nhPjz+Hmj5myHdkrTFfJ3KLWyr9gHL1zSaHU60xnzPVyAXhPgRB7sfScVZPR3AAXV05APfTYdQ4N5ZyPpTaRoHzj25Xhe+LnOzuGh+70sj4dKXCSdpV+poIvGs7H91xB45767HHLm2vT73di6NPUp2AcegP4s7Slwq+vU08PPWXjib/y1HmVOsKzEOvt453fZzIKQVWWEY8ISyNmVChcBu1IDdMiblh1siOOaCSP2Zh+D7B3HYr/Nu3dXV9QgLc94pHHhm7vbe3GDDz5s7du9+Zj+Mz8lyA5ezvooJ/9XWvGhsOHnqCA5jaAAAgAElEQVTZwt5q8xI3lu+j9TrQwP0BK5a/1f3Ygz+cTlGTy/r76cDatVjvd+C/ePZhyYNejNkbMwQyBH6LwL4qSmd8rMT2JrhpBQlqIigRqWckCD7s5PPrnqCiS53R0YOO4AhGcKPDZwVJ0uMAKjZb5Qgo0cCmqgmaPTMGmjFwPV8RJlY/SOln+qYLvVFSv3hw0HXjuJBLJhcybZcSo5YkTX00iWGJZ8iKQBnKlQSrFIDngfL9b1bndXypqdQ9z4WP4IGsLcQe1aDHFgr2xv5+MzAwkBJY9dgFfwlx8pF4ZLTXLZUqTlvpp55kF685cbNaiScM9tG1hYId7eqym9assZgau/bUU/2TKvGpfpK8Oz+yu5/LyOFMT1KHl6QyfsL4cNzV/gtF2JdvOfHEDUiM6K3Yf9RR/wCJ/Air1RlQugk4/z7t6f6XMmMNGBrqjow6g6jkUyrWc4yFh91S8euWkB9WWPRKZuDTXiOawymf4ML5tfFyH/U43wWOY8Pd1Vla689rFfdLazwolx6hgn9qd867IU6SBXPHql/iSr2OaznJSvmvcY9fG2xtEdxtxx9zXNvo5NtzcfQJrI1MXPbDenfbl4wDt856qP5HviV/4Ul7NvNcS13351DMf0kl8fa6xMk2XHBOQp/TiPtyF0CDTBaG5tGHFzsNea4bNj7EiNthuX/7ztk9n6A0ufe4hx4af2jJkgKx6uzS0K6/8aPozJxAgwH+/qQjd3Vuy8joT19+7NyFO2sf8BL7gbzS4AT+f/FS8bulk477HmzcyNY/4WTy0yecYJ7wOEObs2lnhANZDb89N4vgDg637F0ZAr+HwP4IjmtLcO8tTU1irir9SUqBAgeFPeIEHxalYJ2lcKkz9CwIDuCC7pGRswKZ9LjTXb0tFpjjVhgnEOMeGme4d2Z97ilK+Wc2z5l1xYoNG5r7U25i4XEjjueUlF3m1uUptFZ/Q04mZc+aDk5JZ5MaRxbyv4rndH07VGrNy5//Qm+CVlldo6MEyWomdXjJksXvJEn892Z4eKET+JPCz91sLHxBUq0F8ygPAhZNTenQqiE1WwzNXT8U/nzFimMX1dV5xUT/nVsZK7k2eTAInHuIK+Y0p2rLY21mqXKpqj3n46rccd2Ce+4ZwinetXDep0giP8qnmjjnuwhnN7Ji2zes1mM+SY6FRL0pDut/pIAWDRN3u8Xi5ZSxW7ebcAXX5v2lMDw1APAdJjZBoe1fgPuPgJSgm/ExYTP8sLRquWa2CuXir6gQXx7O5e6YSurzFg3XrvSV6fe0mRTF/FeJ533v8q2PrkOy/s3y3mVzxib+3G9Gn1A6gcQXP5xaMOdLhEa3lrclp3ia/lmg6bscYIYKvlYWc1+PO3MPTLowVY0jcKbqImkrdSrhhbczb7AKUP9fWx/pFc3oHH+q+lFKnA4rvNvGFxz9MaXo/cc9dGdKcEzrs9p27f4bN47+EMVKRoi/rXd1Xf2lrVtHVqw4uvPYneEHPGk+VJSGenn/ZrdUuN5xxXXSED+yuvI4lVs3Ll+un63pdUZw2Rd1hsAhQmB/BCewH1y6/TRDcNi5m6Z7cGhyaBw2TEvBnYSSVc+O4OwF80ZGU4JzLDpcpntgewgO1QqSM2CuCzme04Sw1dUF3avnrl//pFZduLe0qr+fbhoZ8RqTtK0kkle0O/wPXWLfvGt4d6csFHaxubNveKIm+GNL77yzcjAlDocI+v1e5me9ve7JDvlfLIk/xEaHFxBLBBPOlON7WyJDPOY4wvNc0qxVpTLmPxuB+81bHhsa6jp2+V/nm413tE01XtfBGHEp+Ra4+svGQoGGyYVS6zc3jLGms+M6Ui5+a959D1yDNzBy1LxPUaU+6tYjamKFRRZjKvAfEYIN+9YupFKuiJQUEWMkoexXMaXv0MXi5GQQLGJR85zc6O73F7SdXxZO02/r3AncfUDHiqtG2FePo47ISjdmsMO0FT7HhHddyNiWcTcpLdpW+7aI5Bt5JCfdObP+gxcLP9hCk7swqr71ZccuLY9Ovj1oND/JUOjje2sqi+f+W2Tz6wojI51l6p7nEfZ5PToBDEiVl0uPh12FO6a42dVIGprWal22XH5VLJxtd1v6L9xX95+1ZXI+1KfewkbH/s7lbjt1/VsqRx/9EaHjTQvvv38CU5QFad7cU62+00+SM5BYjeN8OJ416+ovPvbYztPe8Ia2l+0eu8QJ4w+S0QmPuu6Uk/e3iSB3vzV2libwm53M+cpRrqqQgzAD33sxZAT3XH7Csmu/pBD4XbPl6CJ3fLwotGkRHL5Iy/4YN+NIGsEBaIcOk7J7p6Z2VW5o8lmkKO0FPdMEJ9JO4WiekvqYpClKyRhI3OynDHJBWVHOV99HZ32mb+jJCW5m8qZFFDxoQnveY/OEhcWjU5MnmPb2xbTcNl6j+rIfv+EN4zNpwRfIpJNr+/tzp0yMvMMJ40vorp1HU6kdTqgSjhdiKR7WM7C0pYM2T7iNfNXmcv/ZoK4ekeElTKpz/ChpC1zxgGDsKirYN1mSCJmoCwjQdxBKeuvW7JYUftBeLH6hIOX2CSY/YRP593qyTj3Hm2SulygueBLFsWtI4AAtNbSGyKU3xZ5zrfa8r/Ru3ixvWbIkRwlZJGq1P/ObzXMCY1/WHviRjKIqV5bmhd9WM4loENhYF+znNJf7lnWcwV2sYoHleubvaHyZxboflJ2wc+d+2RbyP1z8trPvRjuv65cuXdQ1Pv7nfhxf7qNy1xE/Gm8rfJnnmjcnw9S2teWXWWDnFybj82hTLrRJnMiAj8dUh9oq6zJwZb7Y2XTdW+8LigOWsU1nPP74AjdUbw6a9Q8CgQ7N+Z2VRQsus8bc1bthw0i6BwfOmzvHRt7pJ9EbhACdeO6ltWL7NQsefXTLT/v6/FdEzbfRZvNdamikjwuXc8dvWuZMOZ7nas7/azBwryjGU48/W4ecjOBeIJ/G7DZe/AjMEFyrH1x0IRIcpigZqu8wVzjtejwTwaFNu3bIMC27dz5R87XKeRYER22L4PykpaJEWzB0MEkpDg0psbAcozhLrF8oK3Dc1T+nXVec+wwIbu89ewxEN/ee5TA2vISW8sdr33dHA/r9n19/ff1QSbsP0Uog1556qndC3HyDF8Vv5UO7F4GUnBowLhNm2hWUWWOpYEQywX7Ci/n/GQderkfh+USrlzOlEkewtVyIX8zeufO2NA3ZPuuNgvIzXUb6anHINYV1pfbitUXmbqxOjnxEK/33Sa3J8vnC/U4+ty00NKqFUY9jmOsSnjSVmohddn2z5P1q+ebNG2ee9deLFnmJCF5enBx/g6/kqzsDpyNpND3HgG13/TBUeqJOYN2E5/xKAdyN5s8/6esO/ITPmTckL6HanmQtbcazZ60xbcUbT7zjN4/ita898cSunuHhN3qxvDDPBVp+3TjlOd9vp/R+JI+fndJbbGo4+hVV9zwy1VihphodJCcKGqsWrZKCUZnkgkbkerc9VG6/KvK83a97eNtsz5jX5Ix8p9UyLym5vzJv7n80CXnkxHvvnbyrry+AujqlND7yZl/Fr3Q9Io3LvhoGHf+DZQS4X/nKZQtX0Eb8ejM28QbOvHbOAxe4x5hwqpqLn28v+N/cahrDMwbPB7smMoI7WOSy92UI7IPAkxNcqpBP679S0w1UTxIBklgwLhnmRXfdEzr6S53Rg4/guNYXzBsdT8sE0IG+RXBYB4d3hb6ULSWltGC9QjEGwa+4b+H8z/Y9RYpy3wlOH6HF06my7YYVZ+ZksencdfPN1RcYue259VtPPXWeB9Bbmmp0Mk0s0TqxSahdx8faBUcliUOprWtrtzgdhVEyFc2OqV2UaFVqgAkJpXfKUml4RpWJX975sfpsE0fLinnhO0I0A0p35pQanNi96yPWmg8baQXP5X9MC4XvPWzVLy0hZwoiOik4k1PWPJAk5rEzdj6EVpi/d/zwhBPKBUoXFAFO4rLZzpLE+BKGE2s3TUn5+Kt37KjsXQyPZSnF4corGOELuCvoiBAPNh3Yfu7NN6dGziiYaavVFvmGnBQQwwgRm+PIfeCUzXfUp7eE03u478wzc3pwdKEL8fJ2x1kok1g3o+ZUZFVN5XJDMWOPv/rBB7fj6r1hxYpcj+ZzmdKvMklIIplsr/YuumXG/R8FS7BjR2l+KI8TMl6obSi1Z++ZnE0eP/v6zWhqkzac37F8edmS5iuYZD1gnHbh5LyQkocTajclxy56dNmaNU/Xqudpv4MygntaiLITMgSeGQL7piidSiuCa7l6TPesSQmOAqR7cFhBTYbdoruOGLiUHAKCC6TqSW3BaCuCQ/cSTI1Sh0NsDTSUhFx7UYHDV9+z0Ft96m17zJaf2UPuddZ0nzPybB3fD3jgA3jDxpUrnXBw0C/UUscxCERkpqpV4MFsWsQaxXoNFHc1M140dy7I4R3SmWhLPCEl04yZ+woFubs6K3rf5uvTL2Z85p4dO5zS44/7bUGQ9moIXFc3x8dZB3X+jmhzkWzKXOi4v4k8cXW1IL5WC8M2TwjOpKOqjmxuzOcj9Mrc32Ngk1Ys2yj5Ju9FCYcQIGdM0qwFzcpwe9wPa/Vly5YJFGCsWbMGvXDIHb29BQcKbqGQh6b2m5X2JJ6ZE0wv9/X1ee1S5oVCzxk/rC0oNE6fluBPl2faGRVtoVYLcp7n2SiyU0mi4yjS40GQLKI0mkkXXgsrWU/PDmeW2yigz+iktXHf4ODUXnuw5Nf9/cwPw0CHoedGkUk6mo1f3LYj3uuHELH9/Wz7+GDBaOqKpMipYKzhQTNHaePf16+PDsWPpozgDuDDkp2aIfBUCOwrMkEnE6YhJbhW1Nb6Ckh7ehMOGl0OBQx7RffOJzKJqw6W4DYu7D6RaLige7RylidVT1paTVgrRYn+lzguJ6CIhRir7wqutIKtvttr/8wBNDw9oiZ/764DT/VgV/a9S+wqPGL3alC6p8Envg8J5Ny+PnZUternm/BRo80l0VTohYXcrUkx/92Fm+/90iEW35CB/n4Ga9eagyCAGa3Ts6ote64WwgzZHsrrZwR3KNHMrvWSRuC3KcpHBxjuwVUmUoJD38XWN8tMYxoGhDBAZ0fCybBXOhQEZy/oHhs/y5Omh6XeIbTVZDV1MsFWOQawTlsLapWH3pH0Mxvysz77UiW4Q7FQZ76Q07257m6/qINPqkR9oDbVEKqr/Wbb0X7NXct6vrJpzRps9rl/+5ZDcSPZNZ4UgYzgssWRIXCIEJgpNj5nZMcqkcQXBlPVEkNBvkEfStJKF6ZF3mgsxVJnfosEV/bXPeFSfPApyu7uEynR75lfGT/b07aHYVNT9JBMo7cWsaJhGEaMihLgBV+DYJffw/Or9+oHd4hQeOldxsJKtmnRxq7ORH0QEvPuer2RMx1tv1Gd5e/fEthv6ySpPVlK8qWH1uF94ozgDi/e2WhHMAIzBHfWyNAqJ4kvzNUmSwwbeaPBvsH6txbBIblhCjFBt38Bw2459yz34LpPpFq/Z97E+NkYwXHDptvyoL++xexo2uwUvZ3R1d8pBJo4/PLdRwWre57FHtwRPJUH9GiYpjxv9gq/6JNzjdVnxnES6HxhQ1zK335/gdy2be3aJIvgDgjSQ3ZyRnCHDMrsQi91BPZEcGNjq0QUXhhUKyWOdXCYJkSCQ98sFHwQmqYoE6vACDIs2tDJhF568GUCrQhu7uj42X6CBEfT/nPYNjwVPKb1d9hOBsAQAm7RVyDY6qGjM4I7VGsWf0bcfdKrj6bGHGUsdaXHdoWG7zx93drdh2qM7DoHjkBGcAeOWfaODIH9ItAiuHfxN4/9OiU4b2KkJIwifNo6C42P8UDRB/rfJ1aDFmTYaQ/utKBXOUPNgyv07m1FcHNHxs/2Y90iOOxPgyIWbFjAKBgNacNTNFx28khwfPXQMces7rnttugQiyBe8qvjuRBLvORBPUgAMoI7SOCyt2UI7IvATAR33lh9FY+aF4rx3SXUSnKMn1A9OSMzQNahFBJsIuPQYd4WrKOgLz1oglvYdSK3+j3zKtWzvdj0UE1bPdvSnnAKLPZVxdbaQEATAiKfU5bz1UPB0at7dmQEl63kIxeBjOCO3LnNnuwwIzBDcCsr1QEWRheysV3FVhvQVoU0lr2lJdLYF45SiNHt36HDrD23Dgy99GCtuh5d2HUisfaCWWMTZzmJ6WHTdXY2bXiq0xQlRnRYi4d3w/M5ZThffUfgZCKTw7xGsuEOLwIZwR1evLPRjmAEZgjuzycmLqNheCEd3V2wKJ9EQsMXemWlFUgEKCMtgnPZMO0orNNgL23bdnBOJjtTgoP3FnZPvMnRpkdQAokyYDBFiapJzoBiWTE2ISUUaD6vLeef/k0xWJ2VCRzBCzJ7tP30jc9AyRA4IhAYSF0mAFp9wQ7HsYfgatV/IGHzIjKyK2fApkp9Ok1waT0c1qlRDjExaH47QjpKd1mgn2jbdnANT3fO7TzJIea9ufHqmxxl5jE0VbYEJBjQ04XeHHnWYj0cA17IY8PTTw+Wi5f3bt6cZHtwh2N1ZGM8HwhkEdzzgXo25t4IPElrekv6+y9jD+zyfeaGvgcMuxq3gTGeMsRnnAZhM/GNJq4F7lpLOWWUU8qp1poC45YBsZRZSwgxSsVKJYkkTMeCQJML1gDQdaAsFJxPMqErXhiFmzahJ/HBkeIMwb0tDi+nYfNiOzTkUmOAWYCUYDTWpqWVcC2RCcr2PT5KOkv3aAMfK2/fvv5glsbk3M6TLLEXeeOTZwppU4LDfTeFCcpUaIJ1eK3oUWOKslg0IMSnbw68y7MI7mAQz97zYkEgI7gXy0wdmfc5bdA4AD2nVl074QWW54KEUZ9IHgA4eQpeh1JJSWtZZpTOssbmjbF5TqGYJCpvgQaEcN8Q6hAgggBJrRgJUI0xC8XW1kC00YnSMo6BQJMwmCKEVAHoBCWkDpSPUuIPcQ+q1IRVIJU6tWGds6maE25tbp72IXy6KdhTJmDtFdBsXkJ2DlFHanAMgNiX4AiHhAIo3xmnHcX7DCUfKQ8+fNfTjbG//z66YG4f0fZid6zyRq50NwpKEFi05rIEnUwoIONhoTmqKGmxbIzgl9+/iF3+bLwoD+Zes/dkCBxOBDKCO5xoZ2PtDwGyqP+drh7rmqeBHa2Zv0Qbd7ExzkIwYj6lQXcS60IUJQKzbUYbYlDvrtCbA035HaCOhwlAMLEkFlt7eR5YpcBO6/Kpw63VCqxKAFiqZ7RpjRi1lmGkx4TlgkvfZ1UCta3ETjzsiuoDhtbvJWTykcfvuXromUzdDMG91ileYZuNS2DHTurHEnxtwEuL0FBo0uL0NIKjBJTPx6GziI0eP9Q9+MBBEdy2BQv6GMDFzvjYG6nU3VhEzhhLrbqM1Wnz0+mnBoXPXyoq7Tirb5w37zMrszKBZzK12TkvUgQygnuRTtyL97YH6KJF4DQ4PS5XKC/lTv6YqYac02xGc+Ik6QQLRSA8bwnHyCwgVPjGgrDGkjQSwUwb8tO0XSyqEfGFpGF16++EYYoudTVO83IotEBCmzEexhYyrb0w3BvDejGMeJAClLS60QDbnCI8rlIeVyhVOxmRjwqu76VWb+oiu7Zt2rQGJRv7NaxFV4tXnvDat7iJfn2+Uct5UWwLWlvfWmqxXw0KG3EPjnMWUWuUQydUyRlMHPeG8Y7c9gN15h/o7+fn7do139X61c5YZSk1uoNxRzDOLShtjFaAHiauoWnNtyJgVMGfTBxn7SPF4k1nbtjQzPbgXryfpuzOnxqBjOCyFfJcIkBgYID0fmtc1CFfjHV+LrGi24CYI7VZLoS7lHNvcaxtV6J0USnrphp6ijVb6LyB38ktCSLuI+He0p5jz7fyPjyzvxX9e1SUChv3KBqxfY1FCb1WQGwCBBIgVAJhsSU0rhGbDBFj7wejHiDWPFR2k8GAsO3z5+cra9cOoDZy74P86+LXzC8S1tPj83w+CXVORVBgjNqGtlbrVPRCXJdGADZ2VHOS6Qrx6TCUy/WDIbjX1Gq5II47vfHxsgc8YI7DmRAWImWVisADBZ5iFPvERUBsPaC1xHGG71Zq7J1bt8YZwT2XH4Hs2s8nAhnBPZ/oH7ljE1i5knYPLndrjdj3VVBWyvRqw18H4LzGUu/lcUJzUlFu0CCROUA4B8oFMMGBtoINUFa3mnaixRWSwj5E1WrmOVNcNs1Y+56U/nmGGKfTg3t6s7Xa2LSiQiTQdPMOKO5dWQXKxGBMBIAvqy2FOHZovLPkJj/nBH7GvdzdHf7c8fXr36Wm726PYGams0D/2rVmDQBZ3NdHa4WCvXGvNicDAy2l58DAwYla9l0+T9UCBv/bZQBkGawkK1cCXLZmjc38EY/cD2D2ZC0EMoLLVsIhR6C39wuuLOl2FcNJUtlXRtKeEDbVQqNoOxBepDzIOV6eGUtInGDDtFbH6ZRoUorQrZQiEs30MkXlIaD9VKtkOg2/bLqpNS0PTMlu5t/3eaT0ojPvxdN+e53WCHgd3SI3oIDtZpBi8bS0ZjqNIzGJqQ3RUaKblUpbng0VfHarVRPfUip5ZHDwiur+CGfmA4ajIMEMtOLGw9qPax/rqBd0T7BDvhizC76kEcgI7iU9/Yfu4fv7B/j22lCuVu1ZrGnxWIDc0jgKlxujjwXCFhhwSsYQagEjNRco42mtlkkNiFt0hXtkaC+FxDXd5aVFeukJ+Bfx22hsJnLbm+D2EN70c00XVf+WFKcjuZS5pquv8T1UA1CV1qqhKXIqBEFz5LR4DckX3fnxZYCaBJgNQdAoYRBtU6Zxs+PQ24Uwd+6cBw/A2gF9uAns0M1idqUMgSMLgYzgjqz5fL6ehnT3vcv3I9090uh+qyWlMwgtvjyKkzatQBDCwfULLUd7S4EyClJilVarRquVIkSCw3Skarl+oJwdBSSp4BEl7tMEl0ZiLdrbf/TWisn2jpyw9mzvCK7FqNPCFILkJoFQHJe0CE6jEqNFrOj8gSIUsBxAG8Cqg8DjIONJ0KoGjIXGc+3dzLE/sgFb4/Bkx9B6iA62lu75msBs3AyBIxGBjOCOxFk97M+0knV3t7VFII+tyq6PG1p4PRVtwvECimlIjQXO1LFYcp2SldJAHIzGIBV2tLKQrczdjOsHo+j2galCzFYa0AaJC+llL+raNyWZ9ltr9T/bkwREskQRSTrGDDf+dk/OEiTVGKyOAIQAh7ogsCHptPt+Gkum7W1Ey28LDYxVBIJjVlWBsiFo00woV48ELvyP58OXnUKydevagSdILjsyBDIEnk8EMoJ7PtE/YsYeoF1dIwEU9NxqNPfj2rjnGO11eoVSGrFJZYBxByxGcEhUSEQ8rcAGq3HvK2WhPVL+1HY/3TgigESHizQtI5tR/u8hqr1jtbS6LH1fmn3cK0vZkqzMcN70jtQe7LF8AB33dXpPDASgBwoOhjZXM7SLTUrTEbD1DTHA0tppBYmOwKoQ1Zd1xvQ2wqJfUKu/H27ffDvAGkxXZkeGQIbA84RARnDPE/BH2rCtPbgwN1rp+D9xRN8mY3aKmysCWomgMJ4wAWmBNpKEYGAMEksrnYhk0cpUTqcpdeu/YVFb2hw03QsjaeEyCk/20Fe6fTeTfpxRS+67pPdJZaYR3ozGY5q+KJYhtOytcO8NU5RpLThpGRanfdUwNZpWsAEIxtKoEu8HdwyJlkBBYZozATO1wyHJN9s9+b3tm/0Hs1TlkbbSs+d5MSGQEdyLabZeBPc6d9kXXlut0XeEIXmXEC5hwgHCeBrF6QRJgIKTz0HSbIDGLpzIbul+28yrVaSNBGi0bmUup4WTaToxXbGtP6R7azOKyPSfv1VK/i5U06UEqTBlmiT3Ki/gTIDgApLYgJE6LRhPhxDYSG2aIE2rOJwYm/pKpuVslAN3c6lriMDojyhoTDwOAa3dV/DCH1Dlfnbr1oE4E528CBZudotHJAIZwR2R0/q8PRSZt/Tf2kcmwj9WCj7puqXZhLqeTfevGGiNDTiRYFCY2IrMkL90qujAvmWtPmkzRxpRTbuRpFEXboztRXAttmuRWir930v+/7sITJcC7Kmb+y3JpZfFKNFi+pSk9XDpnhveG8PxsGShtU+InW/Q6BKUTbsBWEtB4X4iE+n5jFhwWQymvntKx2PrO8v6CwzE7Vu3/n+7n7cZyQbOEHgJI5AR3Et48p+DR39iPQ0QmEVPpUAudFjHGyx4s4B4wB0/jdiUlqCtBMZZq4cM7rdhiZtB70iM0DBdyFovSlMRCv493YXj0w4k6R4bOo9gRNZKL6JPh0lMehpz/TTCQoKkBEkU9/RaReFpKhRZzWjQMgbqIDnRllIz9RiZtu7iKCyZJjhMRE7XlGMJAd4yoyIVvCiJUSlLiRcJzncI6HACIKkN5/P6Jmrkl7iu3b5jx+fC5wDv7JIZAhkCT4FARnDZ8jj0CHS/bwEj3uuY7v6wtbnjCM0x18uDQoIzCRibtJT6ad2bAeEK7FwGelpRiWpJSgUwzsEoCalRMpIMo62+atMklRoqpxEYAyEcMM0YrLLAC0VQEq/dihSRvFKSQ5kL7rfhRbQE1WgADXzcVEtFJpgWxT04JLmWxyWqP1vF5C31Z+rRDACphLIV6U1nTNOu3Sg+wT1Fi08ggUMdgIQfBjJ5zcTgFdsPPdDZFTMEMgSeCoGM4LL1cegR6L3YdeNSj03y/wy0/FpKi+2YptQo99cSQEcgcn5aSK2khLToDL2O0+7TApDnkEww+ejmCikpIfnFSZQSXVprYLUVGH1hszdj8AWc8jSNGIcxUO6goXEr0kPimon6ps2XGWXAGYcoaqbkSgRGbNMF3lgiYLBAACM4k46fMivg/iDWxE0rQKeFMRg2ElRhTjtAE8uApiQXgUNr1wra+M741lX/deiBzq6YIZAhkBFctgYOJwJ05cqV5Ff3LM8lsXuJVLnzjPMquyEAACAASURBVA1OYDywCmvijEZKAu46KWmk+3JIekgSSELGAmNuup+GJMc4+i+3hCdKx9ORmMHyAsvQWyuNAtPOZ8DRx5JQUDLBnCdeFMfgrSAPU56slda0BChD30sHFEaHuP9HsX1O2iI1jdJSUsR/QTHKdNPQtOtAWvQ9YwQ9nbdMrcVS4m3hbHiaBWU2BmoqDxJTu9rPj35+YnCinpUOHM6lmI31Ukcgi+Be6ivg0D9/qhJZtmyAj0nxukbDe6e04k84LzJpGdUYD2GqEdWT0w4mKDxJRSZGA9EaHOFhog90Yqb3xVp5yVaTASONtTEYHRktE6tUkjZ6o0QyzgzhyEgWTNKMjVYcGCkAoYIw7gFjvtU2AOCcYG9UNHnG/bfURaWl8MToDAks3e2bVl22RDCYrmx14sZ726N/SYfDLgQt/8wWwSFR4lkSTDzaoKb+k/ZyeDmLSo8NDQ00Dz3k2RUzBDIE9odARnDZuniuECDd3QN+4gfvNVZ8sJm4nRpcZkCATkO1mWFblly4n4Zxkec4oOIEdCLTyEqkqUHcTCMQ5HNgQI2DVUOc2e1RFO5SWo4wRkYBdIUQaBBrkkQby6ymhOsiMJijie0w2s63wBdb4i6hzC8A+AKMC0q1Cr9T1SRmPlNDZ5amSilDVaVOI0LcCyQYMTKe2na1yhWmhSsYvaUR6DTBYYoyNWdWIJtjltnm7V2l5KvKwnUjWy4ffq4Az66bIZAh8LsIZASXrYjnAoGWmhI2ktlLjz9bJfRvqpP2TJGb5TOvCNICmfaitKmAUWrKCU99/LVMkAI1g7ipbX2c02Q7ZXYHpWIn80q7rSUVbW1FUFZpRLVQAYS+NXGiWUJEpAiyZF0SyKWZQi6M8iNKHGsgoJaUCaHztYZXU/BPYaS4XBuHYD0bpjA1elDqVhSH6co0oCMoPlFp255WDhWJcLqUIf2/rRIESvQegsM9OCwMZ6DBxFNATGPQ5fVfWgL/PLXjHzf/fuOf52IKsmtmCGQIZASXrYHnAoFpghsw85Z+9Ngk4m9qhOwjIMqziFtiwF0SJ5hlTCwBaa2xVFC3SUFUVRSNu/z/sfcmcHbV5d3489vOOXefmcxkY4AQhhASFiWgWJEOCq+KG6gDrdri0hf7arGtda22jr4WkNUqbtSuf2st6dv23/59+9Eqxl0KUUESCAQyhDCQ2e/c5Sy/7c/zO+fOTABrkklClnNhPjOZOefcc57zu/d7n+f5Pt8vPMlJvMvomZ2MNR73/eRx3zdPKFkaYwXaMtNxtGvXzdEvBwo3zPZMS5rBQV4dP7nani6eTWntfEG7XqIScZplXi/hvjAEszMvJZE4/cqs/+YIMKnEmJMac0zLefWVdPwAszgEOZzJQ4DDLM6ATdrAoD3DWXsLMP1HS/n4z7dv/ywOf+ePPAJ5BA5yBHKAO8gBzg8/xI5bv+F0AuK2qWm1LlFeOaj22li1rZYNbVVT8oJQ1IpdzJBtHmE/F8LcJXy1ZXTrhw4EtR7X+DPArrT095cpw85N4sLvAi+8EPxyLxWoSlICAh5oZFKiwzdFP1YOjKdMTqWwH4fNwKxEOTc8ruYAzmWA6CyHgCgjECTRBS/eTUn8v4p69vs7d143na+LPAJ5BA5+BHKAO/gxPtafgZx8+k39UifvHhuTr5HaW+tXe2QcTs4S2nrUK+otwiNbrPXvM3EwIphtVZRteF6pvX37ew50pkNgcJDBU67aAFexSmVJ1QT61ZIWhxTxX2lJmVJeAcaKDsQcmBELzMOeHHFD6jjWgM4C6URA6l6Q9uJwGD3TVs4UVVBKjBoN1MaWQavuedEnOG1+feKRax881hdFfv15BA5FBHKAOxRRPsaf49RTP1WJiT673tC/ow1/PvDiY1F75h5LWw8Ve82jJR7tCrzkiUc23/YMV+wDHLqOtlcmTgmkdvz7V1te+01LvN9txaIPoOQxVgYkXUopnbQYkku4h/25NINDf7tsUj3jynRcwTuHTQ1V8T+cxAMdgk5mWpWi/KtCAP84uu2Pf3iArys/XB6BPALPEoEc4PJlcQgiMExXrQKPFf3f0Jac1krirZTT7+0uP7YLNt+Wzqs9h4/+s29+hUrM703WyYuNKVYpK1HGiyC1cnN6LosTyKjEsQXstWUA17Gxm8viUifylCKaqpwIyqxJ2kRGk1F3F/2mH5C/HN3yR//2HF5u/tR5BI6ZCOQAd8zc6uf8QknfuuFSgfkiHuPJ7tNaMWwaxpreM8kgh/hUu1Z9aFViycuUrX2YssqJACUuNc664Vdq4QNEpWMC2JRDpuWco0FGZ3Gj5tmlpLZ0jubCcUhdx2BUQ/Z2s3t8n9668+fv+ttDfIn50+UROCYjkAPcMXnb84teGIHu1VfVQlk5S6rS9QCl0wkpl0CUwSCZBJ3FGQFtotQU1YloYgaHDgSZi4E7WMdnDr93XlYWBM4a6AS0bKiuCnnI4+TTT2z9vdvyO5BHII/AwY9ADnAHP8b5MxzmEdiw4Srx4FTX6jDm11tTfBEhlT4WdIFEjgnjwAMBMmll6l8IaiIzQE1tdjqP1EgVAW7uNyBwWFzFoOOGrtX4Lo/Dzbu3TtyaG6Ee5osiP72jIgI5wB0VtzG/iMVGoHjan61gSg4rVbrY2uJJlJUhjlGjkgMvBiCjWSfKjHphxElxZQPhzwA4xy/JKq/WWejYuA02mjXdy6rTvs9uHJXfvBm2bsTe43Nenl1s3PL98wgczhHIAe5wvjv5uR2yCJRPHl7KqH1/1A5eJbV/GuEVcEatzhYHXXRkpk2J3zBzQ5BLwW4+YwMwOBSOyJVlc9QpNydAdGwrFa/FOdwQ1O+/YdeuW6Ic4A7Z7c2f6BiNQA5wx+iNzy97zwgsH/hwn+Le7802/EuVLpzpBT2gLIptpb51QBHgcN4NAS7tvRHLgWYA10nFEODmMzgDxLEuNaAtXanAEkbtDZxtvW73vTe0c8mufBXmETi4EcgB7uDGNz/6ERKBlWuGe63Hr5qZFm9Qtnh2sbIcwkRDgvY6zgE8Qv8btO12M92dDO7ZAS6bi8MKJA56g3W9uHIpUJza64166NrxrR9r5QB3hCyO/DSP2AjkAHfE3rr8xA9kBI57wa1LRBz+ztiYHgpjbwMr9oFlntMqMU6TMgFgqDlpAZzACaqUpGXKtCTp6CWuRGmdq0Ca01FkVKIiikqgUi1LLuiNRD527cS2D6Ddd96DO5A3MT9WHoGnRSAHuHxJ5BEAgJVrbuy1XF1Vn2FviGVwNvG6gXlFsJSBMhKMwYoi6k3iIy1R0qwX5wAu67sZalKAy7CLYilTWyDG2EqlKDmHm3S0+7qp7VPNnEmZL708Agc3AjnAHdz45kc/PCKQjV5/PF3vQ1sIjK9Pf26scN972xO91LLfbTWDSxNdONPSCvCgBJZQkOipakOwNnMeR+NTRzBZMCbgiChp9pYCXOoNh9tQg9LLxJbLBcmZvUk2t1w/MwKzOcAdHosjP4ujNwI5wB299/ZYvLJsPXd0RLJ0a+h2Co98i64LV5L2UqBFGONJyOjE7iW0FHgMGgBJV61bMPLO2VlySZSwdQoC4F7Rea0qGQMtoKqJBosOA06lJJPjct/Tp0Xm5NMBjhEGoCxYaWy5XJSCwi2lcPJTO3eOPaW7OZw5pB6Ltyq/5jwCBz8COcAd/Bjnz7BfERim69YBn1HlqrasamxUYxxqmqiiNrooFZSppYEFGhDq+4T4AognCHCBasiUMD91LVXUWs2AoPaWYhY0B4vpF2HGoEYJJUoSKjUElLLV2sByrUnVoEwy9Z1iCXrAEaRBYiHSqZlkDgIO6DqyXZ0yJf4Sm3QGiEWxL3QrN2C1teVKUTJObrbtBz6VZ3D7tSjynfII7FMEcoDbp3DlGy8iAogEc8gwMHC173lP2qVL15t7do6WSLFctTqoaUnK2nglaoplQrwqZ5VepWxNyqhKiKxa0AUDugBgSmBIQCjzLRUeAhshTIBFe27CKeUeoaiKbFAlmVqsFYJmFpAZAg6VLBCKxqRGE6YMDrylJqfpDBvCGBqgppqUnSwtBbeFEpqdDC4FOgeCDuBUCnBojqotuhLYUrUkOSc32ea2vES5iIWU75pHYG8jkAPc3kYq324xESCDg4Ns06Y+xxpct249a+h2r2aEA61YrdVx2siTlYWTraEnKu0fBxCsIDZYRmmlSynqJVISrWOXQTmc7PAPUfwYy4BZmTCrFYIbPHOakNkSX6Au4uBtThgZkzk0teEpsLmBbgWuNukYkghy+NXJ1DIAy/affw5UNsFtsP+GAKeBWJMBnHEAV6yWJOP0JpID3GLWUr5vHoG9jkAOcHsdqnzDRUaADAxc7UlZ6QkhWMW98kmG0udZQp9PCO0O46gcJbJgLGZlnkfAE4QIzxjBOPcp5wKkilPKfqrVPz94nSn7pyVEPEtM2tAFoANwC7+nf+88LGZtuBt+URxwSyCdA8CnQcBi/y3AdVwF8DiYAaYAl5qfugFvl8GlAIcZHGXkZtJ6MC9RLnIx5bvnEdibCOQAtzdRyrfZ7whgKbKugm4KpVWWVAaM9U5OpDlZhckS6osTecE/yYD1EqmYMoZQygGyjAozKxQ8poQBo6gqguXDrLjozqgDdvM9MViYtWW+bOlOCGRIpsQyYvp9jhziCCJ4LAQ4zOA6JchUbzIFuU4Gl2Vo8ylkBmxY3nwmwHGskC4AOM7IzTYHuP1eT/mOeQT2JQI5wO1LtPJt9zYCBAaHWeWhuMaEfzzV/FQA/kILxbMtiDVSk+VJKyTAObCiD0rrFC4oBS68FFCcYSgFhZVCpcEa42bSHIC5/zFf0wBO61E7gCLub+nfKVL5sXzpwCwFtxTgOhlbaneTJX8ATkMSwWsBwHUyOASuOVHlTgkyq5E6oEzP1wFn1qMjrkSpgeHz5gC3t+sm3y6PwAGNQA5wBzScx+zBnlpHw/iV0t4Hh3nlybgmInqR0cVLjA5eYkyhJ9E0MJZz7gnGPQ4aFCQqcgxFxpEbwrCaB5SkfmsG58cQqLIyIrIZXRkwwyUDKjUjtQiQqcqI+0I8MliixMwMh7IderoMC1mPnQwOCSYO/5ypKZ56p7zYYe9nZceFaspzmd4zAW4+qVtQoswB7ph9UeQX/txHIAe45/4eHA1n0FlHdsVpN56YaHu2VnBBa1aewWhhgPHyCiAFoQwhODjNfQraKDAgXeZFkRBiDBjM1ggDohA8GFjhAdEIYJiIEZesper+xAEZghr+0oGc+zkFOES0FH46Y3FpiXL+K/uby+DmTj1TH8mAzu2/MHPDf+OxOyCY9QHnMris7OnQNC13uh5cDnBHw/rOr+EIjUAOcEfojTsMTnsOGTZs+JJ4eLJdMsr2WkEvtNZeZLS9IGpBD2UlT3hlsMRzb/tYCsQETcoILNFor+bI+i7jQpV+1H9MVJplCQ+slGkZ0oGLE3fMAK4TgSz7ypgiaZEQs7j5+bT5flsH6FKAQyKKk93qMCznmJbZsRf06VK8XJjldQAuI6J0+noZwCG4IdClAKfnxwTyHtxhsHTzUzhWIpAD3LFypw/8dVIYHKSwaZNe9bxbao1ZfUqU0EFlvLdoDWcqicr7BeBeARj3QCpkEiKJA2uQaByKJ4T9M2QsEmCiAEwEwBgHpTQopcCi1QyuUIOlSGSbOBn/FODSA2SPtL+WJW/uZ4rGpCQjlizY0mFlB78cwKWZWfpCwD/OMy73UEJekJmlJJQUJOdIKE6fMuvBZWVMnIPD1h5ex9wcXA5wB34l5kfMI/BLIpADXL409jcCru82MDApntTHvVC16SuTFryWFGrHU69QoY7Wj2VDzNAoME+AVrErTYJAYFiQkTlwyr4oS7mRWK80aX8N9UYIJ6BNqgWZYlK6dLOZbVdOdMLGGXPS8SqfTat/7nfz4Jb23jImpmNNdrK/dKx7rjT5jB7d0wGug3tZifKZAKc4IzflLMr9XXL5fnkE9i0COcDtW7zyredSF4BlZ95QBEXPa8f8FUlIX5q04Szilxj1CkA5B61UlrVZcKQSjar8BoDTLFlydMcUPxzAWTBoLUMxA0u/dBwD4QyowP21I4O4HAt7dQ4IU0IJZTiMnWoqY/aWItNChMugamG501U70xInZohp0VG4uTcktKQjC3iUtO9mHcCm55fVS7MMLgXElMyS9uDQZMcNJHQyOKOh1FWRnNObbCOX6spfSHkEDkUEcoA7FFE+6p5jmEJ/3a96q/q5R96vlHhZIvlqKQUA9TBly+atU/o+Ei6so+FnZb095srSVItxBCwLOg4ddjCGIwMckihyhBPCBViDZBQsJxLHunRwgv0tZdz+CJ4IVoyhT1s6SuBIJ1lfznXn5tiSiIQkZVxajWoqDhoJ8YFYAUoaYDiy4ABOAUEbHJ2AQZDjHeUU3BnPIwW89KkyYFsAcMZol7lWumpScHKTzgHuqHtF5Bd0eEYgB7jD874c9mdVOe6mNZbRl1vq/5623ioD3LPgg8nmzByYZJJV2HdLZbAymn9H+qpTZsQszkggRgHhFITgKOEPSTsEInwAglkVBaMxUxNAHYAaMEoCowQ4YxDHrTkZL1T8B+zZdcqZnX6fy8SeSVgBgBgsjbkolggJGFgfLMGSqgGLJVVQIArCKYLh7J1SMlNJ6QyC5wB32C/Y/ASPyQjkAHdM3vb9vehM4b+wgk/vTl5pDHm3Nt45lvIK4R5w4TvzapdJOUBDcEiJJWkml7EYO1lPRspAkLIGPdeU67cJLA0aCypRwHjgxP+RYWktFjItwd4c9vMYJyA4sZwTrVQYG5s0wKpZxsiMkXHbGJXgrDgQI60FRFBpEbFcSma1ocgWoZZYnlgqqBClc7XyTjbG6yU0cAoqbhgBszaKWRyCthNOXjBCkGVzWUuxo67y9BJllsEpgYanjW3X5W4C+7sG8/3yCOx9BHKA2/tY5VvCEOt/Ub838/jxqxNZeIux9D3WeoHFQTbGQCCRRFvQjt2RzYs5xmFHob8zOJ31y1wvzQJ1fTAcB1DZtBpmRulcGWcFV5o0Ts1EWsZQZFIlMgrrXkE0BCd1yswsEF03OpwCSCZK5WBCyWZDqygixEjCTGyJiQ3YhFqbaEukNokixipJfEtYUVGoVRgvXBG2+EUq4Wut9cELCo6xKXUC1oRurGFuVKEj4eVm5TqEl851p1niQhblPMDRm3Tj/hzg8ldTHoFDEIEc4A5BkI+ipyAAt9PCyif/lzL8Cm2D872g4qS2lEaJq9Q3bU6tPwO3tFy5QLzY9eCwk4ZubClTxNrEDUYLhvY1mKEZMNJCqdTleBsybkLSHINaT0kWS/6ojJt3G5B3Gx3f4xN7v/LbkxO6PwFvym4orLCbK0/syaHctOVpnMr1e/x75YYVPZTwtzVn4fIopOfEkQUvc/ROMFsU2XgDlkZRtmtOiHl+3s7NvnVm5TKCSWdMIAe4o+hVkF/KEROBgwFwBIafkm0aHs5410dMLPIT/e8jQACu4r2nnhy0w8qt1viXaPB7cYA7tYwxQNBtzSaA1UBHLMl81Tp6kKkySMeCJmMe4oC3isH3BTBBQcYRGI29NQa+8EBKDcbEbdCtUWIn7woK/v3FYukhrfQOreU0I8mMiKuNXbtm4/13yLZk2Zk39hlD39Fu+m9U0j+b0hJoS9HKDQwCF5VAOTIrCSj8ZZbBpQLLCNW43DNFlYxggsjcGfR2AFeraiHYjXkGl7/U8ggcmggcbIDLriJTfdiTt31orjB/lgMVAdK//uZuaeya+qx/kwHvRehsA+h6jewLV1FEGn8EFuKUVu+euVOWXKjMPy+mjBio4wh8H3t4FKKwBb7HgDPsuWkj46iuTXwvI60fCjH1E4/OPmTo9BPTj2ysZxeWzgZkHMb9u1hLymd+vE8k4h2tRvBGqwtne14XSI2dtOwSWEeE2TjgS9mTHTNU3AjZkxnAZVmcMzxF0g0yPY2Gcq2SA9z+3aB8rzwC+xWBAwVwBGCIopFlkvQQz5uyW5MeAqpC+ldMk114auPcQP+Uhk34njGX3WXSD/t17vlOhzYC5Li1t56imb1ickr+ltTsFIJKJUFlbm7MIOOQSiCZIr/Lbjr2NQ4UFtLrqSNxICNSx1ieREo/shYlLOkuY8nSTE2PhZSaeyhRXxXF+u3N7dunADZ2ZEQO6NVX1l6zhFv99mZDXK5l4RwhutzIA6qhIH5TTzt5sSRJgPAgcxDgjgCTPlDsOWNuPg3gUGQTM7gyZnCc5hncAb1z+cHyCPzyCBwYgBsc5qvGWr2xLa1kvFghrNRuxYRxSwnxfCshBKbCOKB6VvhmohseaW/efBvWsfLHkRKBwWHeN9Z13lMTzH86M2ufrwzrTWfePADrudkxHIxGGj2SFNNyXSanNSd+nOZ0HX0QdA3gVDhNSJ0kQImBWrUI4exukHFjTHP1M2v45/xA393ufXQCNt+GB342fZJFR7Gy9sNLuOXviNrlIWNK53i8G7RhSOYEg8DLJKCjODJEU4DDa83cvjvjBxnApXmfcSQTzOBygFv07ckPkEdgvyKwWIDDdzDbt264ZOLoBWFSGDSmeAqISqIloWCcdJIVAc7UJorYsE2hNc1ovJ2TcFusph6YWTXShE2b8I0rfxzGEVi1ajioB8HFUrHPJcrr08ADTG0slup0AGAyH7c5Nf8FUlgdHceMdJIV/pzMlvvCaWuF+Z4B3weQ4URLqeaPCVN/k2j1LRi7ZuxgAVsn5A7gNH9H2AqGrCmdExT6IJbOjBuAoVYmskMlKJyxIwK7a5kRKn5f6DKQqpg4Z4OsB9cBOOzB8XTQ+9p8TOAwXuz5qR01EVgUwA0NDbGNGzfaav9wFw/061vt4pXKBudTXgEt8ZNr2oIPCvhGGIE1LUNpHDES/oKT5LsiaP/fIGL3jIx8euZZIvq08mXHnTJTVNrzk3znOhbz6b7Ty8FTWSi7sZhjHjUL5YQzPtQ92ay8Rhr6F5ZWOFCBvgBgNQViArDaA6PRDQDltxbcnDlWYWdsoDOAjUSNjik3BUE9oDisFtdBiHAbF/E/FlqjN4yPj4cHqyy58OakJUr79uaUudza4JxiZTlECZJmKFDOgPvoVacg0TJz7u6MB2RLb06MOc3cOpkqc9fYUTKpGCHojeX6E9eOjNRn958Uc9Qsq/xC8ggc1AgsCuA6Z1Y74dpu7svXRarnbdoWLrC24HRy8fO5z6j1BbFhWCdhNEsCn1qlm5KR+PHumv0vSu0nH7v/mvsWXGV6TkNDFDZuzGQngKxbNyy2LgUDm4Z1+rd5mvfgINBNaW+voxU/D3jDw2mdbHjub9lT4e9dL9AB2rp1Q5iCwNKl682mp55jeHiYbNmyhWzc+IyezzHZN+w77aOn1FvFN0jJr2FBjTilD8xmpAYKOBRdAAIcDA5CY0lybmVl6iFzRqEdpiH23JBVT8DEGgJRAk4YRK0J4Kz5Vz6r/0N99NpvL448svevnePW3rpEcvP2mfHm5Uqyc/xyL1grwKK3D+OgrQaTOnOnWppzjwX2BNlnr0wdzNFeGI5AoOO4lVDpqhgu2I3l+mgOcHt/a/It8wjsdwQOCMD1r7+5R1P+hpkxdaXS3ot5ZQmKwN9FiL1LMLolIKQQJ60Vysh1fsAvDNuzAdgwqpbNKDHR1bqx7Xvj4xub81eRKWb09i0zsa4YyXkcGk6IZwyhzdn4nsdg+5KnengdgBqiAAh4CGKWwLqPi0qhXDWJvwKsJh4xtuAJSWS7GcdQn9j2gWY6sYv74WOjHhi42ve8JbbdBmoq/krPC7oIEJHUJxPD2O7Eb9Z3n/potAB09zvoR+KOvQPDZ7cSbyiMvQ/RQjdY7LchqUShqacHFDUcgYJ2AJc6aaePBR5qc35qmL2lUySuoqlR4jgAZkDKcKLBeftTwhv/59ldt2w/VLFadvIXliqhfz9sqdcqRU+nXsmVXw322fC6kAiDGpRCOLCbk/xyoLYwyUfX8HRIPS1RpnJfDuC6y4ZzBLg8gztU9zV/nmM7AosEuCGGwNL/ov4ukOSyiUdn35pIer5XqyF8fIUw8o9d3dEdjUalyKztF8y+hBD+wVazvhRMKEqBCoG0r6Iw/o0nt392HG/FcS/48BJuqidIU13TaCfH6UhVQQJXSGHwC+CXK81ytbzDSr2lufuxnTMjf/hUeROzsY9ZBLYu27uCBZVTlNEnh1HreBOFhCpjKOHS80zD9/Wo78U7PD66jdb9aPv2JxXA7aay5uNLGPePp6awmigYAGO7iZGIjQlw8QTxyaNBWTykjNgxuvmdYSfzOwyXD1m3bkg0WW+JWemxqDCzPf0w0NHK2q+S64rTPnlBvS2uaEfiXeB3peLHCF5KAbMMGHA3DaZJRrGYA7gM5JwuZQcMMnBz0OFYHEAlB6psC/Tko5QnnyhURv9javtnnyrjHZpH8bRbVgjlfSxJ7MVak9U430dwxs9i9oaqY9pdM6ArgsEyZcf5O7PamTNHRYDLQM4BHCqwLAA4zOBmcoA7NHc1f5ZjPQKLArj+/qFCtQq67V1STEBcMjkV/45MkgsJSYBz+CJh5GvRyHu+C0O3MxjvI72T42cxYz8fhe21YONq4JmQsPhdhrb/Y+y+j+zGm3HCho+cD1C5XEH1XdNTEY0aMaC4EnBBgmoNirUaqVRKkETtT7cb439f33b1ZvQlw30ra8o9gvHXUb/7t6SBFzebDW5aLWtjaSmhpFDhpFBUu4Ig3gR69vooqY9MbPurJmy4iteafWcRqL0FrPdmK2l33EqoUdoGvk+YTwn32b1+if+zMu2/fTKpj8LSTebwJMcM0+PW3tPt+T0naxBLlab3aFqc2n3vCyKAjZitdsq++7T2l59+3auaTfqmZlu8CbwqAPdS8WGtgCFAockoIW5GzOnpLwQ4p0WZmZXis7p2qgUUJ7yrywAAIABJREFUPeGEgIoTsDEBqsxUIBp3A7V/1nzifd/bpxNc5MaFgc/0M00/HSfmfK1hGWZunldybEmpLXh+AAbZnka6Emyame55TanhaQpwHXcBiqxSBETM4HoqhnOaA9wi71W+ex6BvY3AogAOYJAD9NnaGZdWiYpe05pVb1cy+XXQEQiPfoV7/B/aj05/s2egp0h5bTnh3kvAsk82Jyd7iZW01lupA+g3+a1dm0ZGPhYPDn6cbd3dvjCOxOVRm79dVPsUYYUpEycThrKKNtBjLamgygUY+wtqzP8JvPCWqf6p9tp2b21sOjp7tp78CSnUTmd+qYsxQoySj1klY6JNifK41xMtzUX7J74X/U9end7Fw4qnWGX11EThD7UqvARs8TjBPEENedIY2zRGV+K43W0MDkAlj1pP/hOh9v+TO9nPYPipMB9eii0E+5PrtgAbS7peYcF7I0CtSol3t6H+j1QIP6v39TRh8zv3eUTjuDOveWOrzd480xCXAqs4lX9U/schZoIq/5nYsEWlf6f2nyrsd8qUbgjc/TMDAZfYSaBWAiMMdGgBEvlkqdi4A5j989ldH/yvvV3Ei91u3bphb2ezeooy/Fap4WwgrCr8EmCL0VgGhGE5FgknqdiyI1DOlV6zhDgzbHXWPlk2h5vmALfYu5Pvn0dg/yOwSIBzJElbXf/lbqrs68KWfJtK1EusUlAqBT/xfH63BPsAY1Ay4PcZLU41Bv6HDtuWETNSrgU/IFTf8uSWnQ/A0DoC41tJ9+5kbdzQL4ojelG594Rp4VfHlFTjGqCkEnO2VuZcrezxoEzEwHyjXKZ/KhrBiOl5cKVKgpfPtryPWlpcxvzSbKlc2GFAf9tK+YRVskxp61RKG5yz1v1eID8zunrn9Kk7zhmQEi4dmyLvULZwMmPFFhP0Jx4TPwcLuxOZFJKkdYFUrdO1SXp4wd7LPfLF1f3m9q2D0D6sAG5oiPXvAm/Xj9fHPWsnLraSv03GlZcBreykrHwfE/79RkbbFeiHPNIeWRFE4datOLT2dALOMxfUic/7xJsabfaWqVn+SmBVNwuGPSmrLYqWuJaUc9NGZwDSmXSb5/q4DC4d53ZZkfuLlUBs4twDdEuBjaNd1crs/8tB/eX46J/+bP+X9V7tSQE2MIDNatnJN/S1DbwwSoI/M0DXEMzXuQ8G/ecQzWhqroozcBpJJrTjAN75nrqRp/qUWQaX9eBygNure5FvlEfgoERgsQDn9keA8426rNlSb9USzgdFoFQMGpRDIm3ECEEdCM9TSvAk1lDwvSku6LdkXL+h7ScPwvappgM4fNy1VfQVi12xsCdQynaDZfWZsWKycgWAVEteLRP92+0wvki3Ip9o9cNKjX5KCfJjZrYdb3T5sjDpfpexwRLGC49Xu8t3WKP/ThryU081pCnNrBeAqvD18bHVIyNIGFlz5q0vfeqd9+M7R83phhQrXrGyI4HwY8TEP4ltaxQGZmXPTP+7w2br8ihs/ZrwQQuu/nxpqf6ZHT+rPLY34HBQ7tyzHHTDhqtEs6mCM89stH/8QP+6Vrvw2ka9+F7Gaz1clDT3SaRkeLfVcpPH4LsKzJOWtqdqPbIxunpL/EsINI41esJZf/KWZoQAx14OrAaEF4AwgRweRxIhOPOIb+qOPZ9lOu4NP/153i4H65oiJZigaw3RIAiAbiUAcfRoV7XxNUrMV3Y/9pGFzNqDEMIh1t8P3q5dkHSf9Lz10nqXhUnwPyn1VhAqqNQGOF4jZpfWZk4J6AWXZGg+N+Mwn5V2RJgzdROE8xzgDsKtyw+ZR2AvI7BIgEOSCUBlw0XdQWhf02zqtxpFL+DWA9lqGGQNsCIBGbaJIUVCRJVwrwRcsAkC9hvN9sS1oFo7YSJ8yq3yY1mRa5jAhhWsN5gJJmYND6KgmxDWG7Bim5LCOXGkXtVqhK/mRAScwd0+b30uofob3V2PVVrNwitm6/5HRLBkKfcrMWV0ilF7BxD7DabtHbo41eJhor1yqEc3D4dDQ7fT7TvUpQbo57bvmOnW1JelWte9iY3eF5nxFoCEHlp8IqmIN0axfL1M5Mt8IYFC+Dck2vnF2VUrN8Om4V81pO7KhoeIfekk07DPdsIZH+qaaS35NSnLf2GhuMIYbpUKrVVRyBi0eCCmGMT3Mp78iPvRncZXD8x0QXPP6xmmg4Ob6KZNm3T/WR98c6vN3zLdEC8H3g2EFx3AOXUuw4Ba/MLsLRt6djSMeYBznnBuQA7VP0QKEmhyahMIfAEmwpGDeKS7Wv+qIOarO7d/aMteruHFbIYnaCqrb3q1VfYP2k36Ar9cqzC/AO0wBkoRiAlorYF5AqySoJUEIjCr65QpM51VLGVmGVyayaX5KnVOCdiDS/Ie3GLuVL5vHoH9iMAiAQ4rN8Oksra3Wxh9WavBr7TGO7/gl8AkrR0G2tsIDx82KqkArXUT3n2cAe8MY0BZqx61tPlDgOaXpH38Pth1i2Mmrj5reI1kXc+3tHtDK7TFsNEux81GiSotaaHay7ziKmLIamssI1bd5bPZzyWcfXNp96PhTKt0ZtT2PmpV4fkWCkuIV1TEklFGyA7K6DZG5TbB47tKxfH7Rn7+sXrPwMcrNXHcEAH+2fHp0JfAFOF8PEka37MGmy5AIVFNUS6utpwOaFAnUGgCZ+2veWz8y/Vu+z2Ykxwbpus2TPUn4AsTFmVElS1AD2hFWTMRXpEVFaHaWk8Sgk2rhY+ndPCf8fCj7Ff4HaWhnO909nPnb/jv9GdNfU5YYDSwJFG2QCgptiN2mlTeJ40RxxtDhNEJ+D72lHD2WCmTtMfAxo9xBo9UuwoPUi23MNN6iHgTOwf6arM4D5gSeIbNytPfe0Wz7b1ltll4NfF6HMBh6c6gAonlQIG7PlyaqaU8FiSbOBFmd4ZoHYpv/KnElStiYokSJASCgg4l2CR6vFKa/ndC4C8mHv3IT/djPe/jLpb0rf7kgKbVNykjfrfZMr3cL3PmoXFrKjWGs28amaK+587Z4jycUy5ZyAhNy5MLAc51IJ2aSaqvaSEHuH28OfnmeQQWHYEDAHBYory525Ps9Y1Z/0qtxfmBXwDPs98UQn7d2p3f9bxCt6G9y2VSPiOOyG+EiVphbFSgvB1SqL+XeuNfD4+vPrFsqtlj4uJrLKlcBrT7Qm24SMI4DGdn6lapNvfLgShWaoyJGnpZWh3f6fmNP9exuaM19pGxpSf98dKEB1e0p8yFWgdnilLPCquoRwllTLCEkOhBYNE3KZ39et3XP1ipylUjxRXa0D9PLKEK20kGtJRJgxAqsexGlfGY5xtgaP8sqdFTlvHWP5cr9b+bKJkfIsBhafAJgJpqkEuM8Xu1LMQyxnf5AqFUMGt8jxC0hNYWbIxpTAZwmCEgHqS9m/RzfwoQhmrQbCHyCWBauG2Rp+gsXLJtNWigzBOGUNSOCS2BiiXC11BcqiF4nQW+1FriYzkwCHwHNjJBdmoEmIIxBlGpQHeDDn/GbPsX5UJ0v4Lx+3g09tjIyL86lZmlp73nsjAqvrnRLL2B+b2ASl2uSIcARzhQIlKAy84L4QzJJim0pY8U4FCBHwEOr1MBRtXjAKodgYnC8VJp9kfcwPVTox/90aJX97MfIBvUH6arVoE3pegbgdd+09DiJe2EAMHrYCIdQgf0plMgkwRY4AGl2JNLhZPTq1rwOWUO4FKSyUKAcxZCOYvyIN3O/LB5BH55BBYFcIODg7yvr8/e+cClVcbla54c02+PI/3raFjp+/Bl7pOvtXY++R18+nXr1vEGL64hnL9nfKJxUZK0TiKskXhi4ivCa3x1iRJ3h5592WyLX5Uk/kVKVliluqRFOdmWxNM/tmAe8f3y8cR657bD+AUqjgTY5EeVSnSjiukPmmuT6f64LnYla1VlYvIcziuv8njlze2WWaYlFKzFjk9oqGg1mIi+64G+squrBu0Z+xtP0cK/AFwA9TxLOWuG7fA+xvikz4vgk8ISwlhiQXNF4iCOxxWB5r+V/LF/Hlm7+yHYuFH3v+gdPbqpTp+cgJuILZ4FULZJG6/aCRATxgJHUEC1ffwkn374x+quyL6j5kv2ftlxwKYKDEeyI6IGYqIHxHCn/OHeoZHs4GjqypUF3YwWyn9i5olMDyyv8YAQv8aAeYQwzNwImHYbLAoGowM3F853DbQGGTYsUU1T8iPTXZVtbZ/4G7AT/7TzwX/5AZ7aslPe/epWVP3NZlh6Ey8sBct8p+phlUkBjoq0IIm/28PBO4MCx6zsWOegvQ4CdApwvkdBtUIwUWu2FITbiIU/ro9++FsH4YVLYHCQwaZNZmDgajEjl/fUW/pGwwoXW1buMzisThB8XRzBL6DGpoE4ioD56dwf3sMMt+dPb248AO/M0wCOoFVOPiZwEO5lfsg8Ar8yAosCuA4PvH/9l7s16NdPj8srI2nPB0FBCPVFJvTXopH3fs/JbBVW2H7bfaLR9j1T4+ErldIDfhES0KN/D2TmH1Z0rb1fE/mhqen45e22HZCJgKBS+juvIL6pdeMXSqlWsRycqxN4basZXWZkElBQPymX1c1aqO82z94yifT4rVs3ytoJ13Yxr7JS8NLqODZrKC2+2FL2skarXjKmZSmN7uFEf5By2Lo86HqpNfDXM62E88BPCpXyQ812NAzWjBZ4AYQoeMT5uFCS0Iip8ElKbXtU0h273AwdgD31xW+vtGNyYnOaX0XAW2+t72tJWmCRfocKixRtXwoEp5mJTKt44CNokZRznpb0OgJQCBGWaKKZmlM1JNp3PS5iWbY/MvikKwBaaq226D3DDaW+ShRuKijQYhl46QwliY+aijzwQSHAWQOUo5I/AyMNWCmB0sQI2niiwNvbK0FyD9jJbxMW/fyRrSc/5XY0bFac8vsXNFqFK5qt4F1+tR9AFEDhmz0yJhUKyKCiFToDpHJWC81OHXMSfdEcMmTjAy4IyhFNUPkKU2eiZEKSmTol+qOVyvS/7n74RhRZPlCPOSPeZWfeUJyditdrbS5TMX0d9cons6DbQ/+3zl3ADwGMI3CnCbcjyiBwOwBf4NgzN+CdMSnn3Mo7nNF8Du5A3cD8OHkE9jUCBwzgJJg3zEwlVyYKXswKmLnIrzKh/rlWpt9LGqHv+axKWOk0Y723Netmg0rMcsp0wsjUFwmt3768dtoTlvJPT9aT81pt24eK7cDNR4kX/VO8Y+whWAe8myx7vU7grWE7udBI5RHQdxb96NOas+90L5+YTRqNaqLKBQ2y0Yj6WuuKYCb16uOUCF5hNb2y3phdr3W7TCDa5gt9LSj7neNrxTOMJp9+crJ5HPN9VqxWHoxs6yMygTtbO/4Ah88JDN1OV/5wq9+oeoUyaZUF17M7f3HddCfYqGOZ+MtrkSLnGk2X41S6tSTEd0uNitPGRkzYgHLFkLjimDmowA9Y5sNiWFpuTJ3FkHeH3wxIkKnhJpYvTeByA/dPk41i4RsuVQTlfRNtKAHPen5FhYmm2gjPmMIqY4Pf0YotAcIJ8zyIwzZojYAGIDjWBs20UfoJyvSjHm/dX2Cz95e85gNcJDsq3Exv3nwbNvlM38DVz4/C2lASlz5MCkvBUA+UK43iqAASRgwQV8Kb77nNjwUgSCDAdcANt0pnC7BsSqzGDh4wY6wOG5pa+TfMyK+1Jj/y7SzGnaG6hcKP+77W1w2LflItT0yp9UrrlwLYyykrnUB4oWxZITUyzWb3XJZL0ekAy5bYs5QZgSbtLqaPVJKrs09n0LujNp2zKPf1FuXb5xE4sBFYFMA5N4H1623/xv4uRfnrpuvqbcqQl3g+BUL1DyhRd1Aqf2STUAifn8KYd5417OUyoeUkjEnUmmmWi/aTlbL992rx1EhbftPETPRroSTLvVIJlG5dK+Opf/O6zQ5mTYXZ4lVGw9tVAt1KSWqNvFOQ2c+AEN8ulXaAtHwgkYUBgMIubrpGDF82U1IF2gZ5trIGmZCvszbqA5JsK/LkOk3od3ohWkaAvmtsMrnYMG+FKATT1tf/lxD+NUpr/1WlErU5/LbRXTppLS+VWr0M1JbH7r8GWX57kEWwZLtpU589FOr3v2oZ9AwMV7UpvUBqdhvj5RMoLzh8jKLIKhkqq5O4UPAlE3QL4/YH1sx8Qym2pbn9j51k2oKHq4jWjr/qZEpOeAPQ2nVtFRBpnBsSEEaBYfnTEtfXc6VQV47sPNLB7tReJmt/uaE5DYQiwFk3LM4tdrxw5ECDidoP2UTdXqLlG6an17Rg6PN2cHycbFqMrdKGL4lyPe4KANbVW/GlSpqLLdD11Z4+0JZDu62ACT/N2LKZN5edWpOKSqskxTKOSfmCa8vKkw7u3EV3/ogZXWdMIJPqypVMftWyzf+eR+CARmBRAAdDQwzWr7e1/3NKjcvkdfVZ8jat4QLKCTBOGsTautaqoXVECNUBpaZCQXaZJKZgkknG5D2C0k9Uibhb1FbUlPWvnpyKXptIu56UAhDCPMSYepgRudsT4iQgYpXSsCwME08lMcrQ/8Tzw5uZsN8tB5O9ifL/Rxj7bxGiGwTvmrRWTDKLHBNvhTF27cz0WLcRiaAF+3Nh43czYh4qaqwj6jWRKn4iUeTcRBGf+nSGCfGwx73HC5REHve9qBUuababvUuWQMPz6Be23/MHfw/DTzEMUc0kHXHI+OLu/uyX3uOBvLOnbfjjFVMtf7A969+cSLHMJXgUoFItJJTpbWE480PmkZ9y5t0PnO8kycxMVY0k557bkvMOCkNsw4Zuunnzbap//R92NxtLXqOM9wVlqx5SU7CjiAwVzoXrW8kYAY47F++0RJllOW48IHO+duCGXygTgtmbASoEANZVtYUgKIOJTESVvo8x+e+Cqn84YRkZ2bz5nfttdjo4OMzv2t61jlA6aEnwukTqAaV1rzW66JXKgP1KrXCGD4WVsSJpHdBh5uZKriY9Z/w9qpkg8M0/FjoLLAS4dEXsoUWZA9yBXOL5sfII/MoILA7gsoZKZe2t3dSSS1stdqXV5CVCMKAoNGgpKKzQaZRKxi8ptWrVQbYeAxP9lPvwTcLV99uPdu3uW9dXZIl3TqOdvEVa84oE9EouWEKtbhGlWkHglajn/0ID2RWFrXNUHB5nrdoS+OrPKVd3BHymR5vyJZEufABssZtoP7KGthn1CGMCJ3ZLSoVtw5Otxlff4ND6YrunPj0wrkySrCyGgr9ZKvJyaegGSzmmYQkxJqRaSaSJUCBFzFcKJXk3ZebWx+7/wD8u0KI6HECtcy8dspx01tUviNtsaHrK+x3OapyyYDTR6r5KtbyDeeTBRjj1AIfwUe7JqYltO9pp1plZC80pm+C/t5CO28JksuJiZeGLsa4usawQILFFolQX/udoh5jxpCPcKcB1ML8DcNnvaEqOcQCHvS7fdwRTkDhyIIBoD/UtZwiNH1Fq7D8Nb95ZqUT3V5LwSc51mApkO03NzmMBmg7RVavWi4jHldj6y8AGJ2pbPCmJYZ1W5EwalE+nTJS0UTxJwpT+TwX2NkErBDG8DPyAxjKbm5SzwwVz83BKSle6nJche/pLaP7f83Y5eQb3K9+J8g3yCByECCwW4NxH9K5Vt9S0pwejiF5KLDu7EAhDLE59cau1MNpoxpk1jMZtJWceB9u4l5roh83HP33HfFnvdrNhw218Z6gvjZPktY1W4yzCODZ6AGIb+wV/nDH6LxFr3EeMvczEyenWmidFgX3VU/pOrzQdxKr6QqXKv6tiulwrwgl2iAgjhFCLTMhixR81Qv9naKa/kZR2PbBwhq3n5NnjOOsd1MR7uTJiTRyrokoiRmSEVTTwRVGVC6W6hdlvAVFff3LH8CHTStyb+z6c+d4No+/d4CBfNbnm1Ulkf3tijJ5SrawYq9Z6f65N+9tK2HsfV+EYbB1O0gbShWzDhgbZvHnzr9Sn7D75mhcTAzc0msFpxKt1iVIVS56uP4XpCvdR3grbcR0/uAW4M9ff6hifpixQZynD0eyUAEgCFnkzOnBDE0h80frJ3YQ0/4t7yfeZ8R+wNphmvmgVrR8niIrE2AC4xYEKrRJhiPSVkRXPp8u0hlOkts+nUDlLSlipNCmxoAReELh5vTBuOgIJdVJcHqhEp+bcWHZFQJMITCnj1Pc9V6qUiXSAN1+K/OV3Z0+AU/mg994s5HybPAIHMAKLBLiOreXHCfRX/XIwfhInppd5XphEiSCmoDRUYq1lhXIbM0tntanPMlVPimo22r37/2ml1zKXOVhkuEVxtFRH9ZMSRZYw5tuiqE1pQx7mDT014YW6UJhdQg3tpkDjRtvsgt2PumnnvnXrC3EMy630lnFGexi3ZaUSbhSmkGyG0tJW7umpCRbG62ALbN26foEO4xBbuWG9r+KuiiFhfyKTXqN12bOKMTCWAK8T7j3BjHnCS6A5MgLJ4STTtSCZIas3vLMK0l6ktD0/Sdi9jJR+KorHP1pM6mrpUojSAe49yqhZc+y/X1nL1n7iDGLpuyZ3kUus132C6FqKWvmgowYYEwMvF0EbAhY1HJGcgb5pc1lcVqLMaCiWakd0oQyzPwqmGQMzDCq9K6E1K0HGKMIsgfOmVnomkXG7zak343F/RghvOhBi0lDATx8KO3zaGCG1qikllyRS9vhBqVsbW2qHifC8kqDCx7ICUcjWZARcNZJqSOoNsDjD5pWcYStmZ1iexOkJpZTL2joMUQwSlijxa44NuiCJnC/Luhw2K1FijxGBUucAdwDfuPJD5RHYmwgsEuAyypnrRQ3blRuuKrR10ePhrNaSUyaUmZjpMRUuAu4bNW12xzDSkqk5qQO2Zzpw4zvHumFRJfUyacoaIWVbCqoNESWtFFTQ9+1y0Qd9nphZakZHh0NYt07A0qUGNn1HDwy8x5tQSwqiWAw8brlttmkUhyYJikmvHpkdGVmFwPTU8zuFjqdN66Zg27cOimESFwKmhQ0EKVJpdUsnUKm0RzdviReUx57zXtvCm4y9pjHYEszG/ZqH4TItdR833lhbFCZ233vjUx8mnIv5fjMRjxsY7jeUXDg+Vvwj4lXPEqUlIJFtCFi2k6ApAaOpA4zUEScFODe5t4BtmOpTZkQT1DthPJX7MkhW4WCscB8p3AgBDwGsyxINsUJaQ6S1JCYGIiDoG48DgU7pGaVEPMtIQCn1rTJu+I8Kz2WVWAFFoj8CmLEKfX5QhAs8zwdtCbYAQQhn6u7mBF1ZneG8HgK2AaNwbEC48QqpELCe/vLK9DfneKSprDTDsUSNjt45wO3NG1K+TR6BAxmBxQIcnktnvuiXv3EODnLYNPjU3/ftzTV12X7Sbt26McE3702b8J3smaCINP2tS8cX+rPt0Y/qBMyxPjd2nL8PZBgPj2OhokqlMu339UGYEUX2KjPb27PvPfUDFab4idOtpdcDK/0680pFhUDEkHhhszf+lC25J8BlHnBzDEN8xpS44aSsCAVGcZCdgUQNSBGk4OLEviKgjm1JnGqKVtjTRcms1H+uI5llnMs2ABKcOOdgZApQXlCAOIxBI9BgVunGGpRjbuLxg1LJSW/FiQSBfTcsSipldZwQHviE4gA9AMh2DFwI1y9MXOlyT4Sb7zl2HAYwg0PDU5I+l8kBbm/XWb5dHoEDFYEDAXAH6lwO5+M8K2Aeziec1tBSHckDd56ZvBVZcr207LXS8hMpR5UW7H+h5iIyETHryTI4N8idDrF3TEDTGbHM8NSxbSnEcQJGuXzHCThjbw7Ll8hTUnEISPHBnlicRBkJhAOqwyB708lnWQtSJm6+zzqHAgDPS4e0ERBVK0IpM6BeAYxOb2U630ZA4TERaLl1iiMuHTVGQxxx4gWM+Y6kBLIVukwTZwmxzIkA67I9Nwa3UJdy3kpnHuAwycwB7sCtw/xIeQT2LgI5wO1dnPKt0gg4t4IVZ7z07Y12/BvtRL+UiQpY44PR2NRimalp6iiAJUCXhTnRYXykzNp0Li4dZkdwcNmWCIAwz6n1o3ccZoTuy5U3EVBwZB5/j8CUljLdIN4C1mbqZJA+J6r4d04ZGZKM+UAJgwRteZBUgmVRLFe6oXdjKdOQRHXiFbzHvMDfrZVicWxwNKWL8yDV7sxKnHNqJ3OmrgvFlzMSjbtuSPU5cRDeGqh1VY0Q9MbizOi1IyP12QP74SNfonkE8gg8PQI5wOVrYl8jQAZe9IXn7Z6cfXMUq3dYqFQIVBmBEljsn0GaRblMyum0INAhJLhUx2U+2DnDTM95hDq1fZyF891MHQKcm5PLSpjIcMS/Y1kRt2YZwDkzUteBS8cT3IB55kUHWY8tS/fcCAClqcakjt2TpyoljqmJT5dYa9rK2HjGK4r/CCrln2kl+1rTyest+Gt5UAEpMXvUKXnSGbpmTMrOfF92ralCC4Js1n/MAA7HIbq6aoZzemOxfv+1IyOQA9y+rrx8+zwC+xiBHOD2MWD55kA2bLiKb28uv1Rp+r4o8k/nbFmR0R7QBgkiIRjAbCcFpDQL65DqsZyI5UzryBopUKRlvnR2DqObljTnvne6iLij0cARzDADtBRcYoQZIUHWIwJcurETRHY/4gZIJukoq6AxK/busjk2i8IkCHpNJaOZeqHq/ZQJ+nlabH7Xav+U9mTwv4GWXkqDKpeonk01EEwcO8ksgpszb8VzwivogJtK5/xSY51Uxkwb6Kp1WY/TG4qNHdc88kjUyDO4/NWUR+DgRiAHuIMb36P16KT31A+sSSR5RaNJ31cIju8X3goIIwLaRkC4Ae4RSOI4JX4QAjqWDnAY4yAKBUiSlKjh5LA6vawF3+ftFTCEmAahsKdzLcoAKgU4x45Ewgk27LJCKCqPOAxD9+04glJPD2Cil4Qh6GYTeKEAIgic2HTYrINWrQlio3v8ArsVyt6d7eL9E12TK0uWnXR9IvllccJ6jYmA+xSox0BqtL9Je4ZgkHmZGrtOCTAmAAAgAElEQVSmWWfKzuxkcg50EWi1hq5qF3iM3hDMPn5NXqI8Wl8a+XUdThHIAe5wuhtHyLkga3WW9JcbMV+lJHu3SbovtNB9EnjdIC2WJ7XzrHMaJxTLgxSswpKlS9oc+KgEQQLbYR2NyrSEmaZena9UrrnjveZKmTijlhFEtMX5N+yM4S6pMHI6gYbz32lpFI/uXLVx3o5REFhENcrxSCgqqUDStCC/b9Ts7ZzKb4fF2THYvgSH3umSU094b9SGK8I2PbtUKYG2CmIdg2ULFVq8jGnSwdfOaASyQ1OgdaVNo6CrghkcuaHYeDjP4I6QtZ6f5pEdgRzgjuz795yc/arBtwbFsVVmHMATvnrp9Ci7QqrCxaywrBeETxB0FGZv3Hc6k07AWKH3W9pz05hZOX1HTO+wF9axmkl/xowoZV1mAJft53QgaUcWLB24dtZCiDeuPJmhJ0Ki1k4EWngeyNl6qrQSeFAs+dBu1SFuNyXopFEq8597HvmXRO7Y2Cp0T8NWrK2m2qLLT/n8q9oheXMc898s13rceEA7bgPxOlJkeI7o6TcPyHvMz2MvEQEODVKNhK5K1QjGbqiEj1+zffvUU1ZLB5Lh+pwshfxJ8wgc1hHIAe6wvj2H/cnhGALrGeCXyZj8VrNOXlFZerxA65nGbMuxFblInbBls5XazLjemAWv4DtQckohjmnvYM6BxbztDElZiGhX44p+GVvRsSUR2NLsLhX0TzM4B444pqDRaTxzOgANOglBqwiQy6LjFmjZngKCgs7mukow/eOZka7ZVatGvJGREQWwCRto0LdqeDmBZb9tQHyqGSIYe0AFBwUxGBRfdqQZJ4kyr02ZAXOq+ZUCskXSi5ZQK1eMJ9j1lfDea7dvhxzgDvvlnZ/gkR6BHOCO9Dv43J8/6Tn9k/3JLJyXRPZNhHa9kIrKCuGVQaE4Mc6MgQVfeA4QMHFTyIrsMCgddGXEEuxVISg4B/PUJDV1vlvYp+u4EeBRs/LlXAI1D5AWiSxIL8Hh7SQCRg3gKIDWDty2Gx19jzN6uzLxvXC6Nw6bhlG2DZVe5tRtBgY+4ze1ea2y8LF6k53ERKUogiLEup0BXGpTO28FtFCxJR0Ed/QTJyqtoFYtG0+QGyrhL67JAe65X7j5GRz9EcgB7ui/xwf/CoeGWPEn65dRQ89PVOF1jJfO87zS8TJMuKWMEPRZY54jZqCpKIICyoMa59ya5mZzX5iddcDNAR2fBxBM5zqA6KS+OkPWqaP4HAET2ZHAMt0UC1aGgCqUlKmm0q0Ro+M7lEz+c2XB++7oqJNeW2DRPRcul2suX/2Jc5Xhb2s0g8sIry5nfgmkzTK4jP2ZzvVloJwRXdKsNGXNOPNUBLhaDnAHfzHmz5BHYD4COcDlq+FARoAsP+WGS0JpXxuF+hVyNu4uVLoLfq2XN5qoNIJlPgHMC0Ab7bIgYBm1fm52rDM3gOjRoeE7qkhmY94BQ+SVZCVKJ0epHaXSjdABQMH3cewclIwtg0Qa1awb1XyY0ejfCJh/b+6+8b5fceGOGtm36v3LpObnSdX3Z9qWTjPUR01mMDig7kqlaZ6W1Un3cFBaCHBIMumulYzg9IZy+ETegzuQqy4/Vh6BXxKBHODypXFAI7Bq1S1dM17jRCPNWTJOXmWh+AJLSqsslAGID5YIQO9Vxy4EBRqNbtAfbs7cYEFp0nI3pO0yJEdIwexuQUnTOZI6fx73hX/GaQFBKai4jc02I5iKCIT3MyK/w5j+Vlvr+yOYnoDR29p7deEbrhLBrqX9SgV/RUXtPCYqgQIE5xTk5guRnUtAoktHngzPBUE6HVSvVUsKWZSF9vbr8hLlXkU/3yiPwKIikAPcosKX7/xsEeh/0R8WbEssadTJGYnxnk+g8DzGKqcT6h+nLKsmGbEESScui3OZUKeRhoPb6M+WynE5G/KsB4eDB64O6VxVs1Qto+Djvz1GwBcMCj6DqNl4WCXRgx7T27Rpb/FY8otSN39w5y+C+j6wF9PXR/cHq75f+BMLhVcDKZzKAz9VCXN/3VN0Oe0WpiLSTqrLEV4Q4BKoVkqGc3J9KXr4mm3bPtXMipj5IsojkEfgIEUgB7iDFNj8sGkETjztD1ZIqJ6emOJFBvwzpKb9sZRlJS1aBhQI9wM0YrOWZp4E80xI54CzQO8RAdEBCDa1QGuL6sqgJbFSoitdIFhU8nlULHqxDBs/0XHjRyU/uitpqF27dt0S7sc9ca+PVauG/SY3Fzea9BKtxXmlrhoAT+ftng5wTgcz43y6nTV1yipWSahUCpZx+jeKznx5dPPHwhzg9uOO5LvkEdiHCOQAtw/ByjfdnwgMsYGBl/ApAN8rT/WANCcRxs+qN8zJlNVO5aJyijK8JpUtKaW9dGygw47MelxODQVAEOqktRi1MQVTj6LZSULUmOfBE0aHjwqqtnuMPlwsFHZFbT1N29XWwMCsfBaD1328EEt6Xvjxip6KeklSrEHpl++emuvgIzVItzhh7qblEjDCSwoKJpYURic3b74t1TLLH3kE8ggctAjkAHfQQpsf+OkR6CiggCgtaTS8KtBKNxPVHmlJVUld1tIUjVUCrEE/bU6JxholACOWEqKo5bGgNCacthmx9Xa73qREtjyPtSw0GkDjepmR2SBWre1OjeQADlIPDbGBn72E170pATAGlBdTmUnV3uvXkF/z9bKkpTZv/hKKVebglr9E8ggc5Ajs9YvzIJ9HfvjDJwJk+CmH9uFhBw44pYz9sYP0ZmwJDH6c9Y1BwBKvkADzNaPCyogbFnOhCQeUeiTaUu0pQSFSRMRFTiPaiMORkXUS4PKOOvPhE8Gj+0w67xkHaU0c3cHLr+7QRiAHuEMb78P+2YaHh+mWLVtQnkOPr19PxrZsoVs3bsR6W/6GdtjfvYN+ggSGhih0d1P40m2puGj6yNfGQQ99/gT7E4Ec4PYnakf3PmRweJAJWL20rRoVlCUu8Mpjmz721/HBy+SO7oAeLVe3bnjIE3Kyz2i7HKD4yJKg1dg0nMqa5Y88AodjBHKAOxzvynN5TkND7IXLm6Wkm7wKPLaWeRDLxP6tVIXxrcN5Jvdc3prn8Lnd+8Saj7xopQj8F1lGLyBAvse03Hzvn3xvJM/gnsM7kz/1fxuBHODyBbJHBDZcdZVQfaNLdRD9b+qxiyhnjailfpuaZNvlMNjOenN51I6dCKTvEcNA1uhf22AL7LcIp2+nmvwTAfjK/fGmO2A484A9dmKSX+kREoEc4I6QG3WoThPLUJQny2g1vDlR8WAs4ykI6dUUyj8/HpKpvCR1qO7EYfM8c6SSkz557gUxUb9lKLxZEPYNDuSvdkR3fT0HuMPmXuUn8rQI5ACXL4mnZXAbRPu03l4ikj+LdPviWCUxTYofYbG4swh9o1uHNyZ5yI6pCMwD3GfOe02s5VsSq17FNfknCuQro+/72bczoZljKij5xR4ZEcgB7si4T4fuLG8fYmvHpro0Dd8fqvarI5mUhapeB+B91w/pjpHhTdGhO5n8mQ6DCMwB3KrPn3dlDMlvxkb+Gpf0L4ixG3e/9947c4A7DO5SfgrPGoEc4PKFsWcELJBTr39xmXSZKyfb9cvbSXQSt12f9az/n77f/8Cu927cH8mrPMpHagTQ4wgfhNilnz7rjxSRVyii1hRJcEvBBv+64z3/dc+Remn5eR/9EcgB7ui/x/t6hWTVXw/6npQXjrem3xZrdXGhuOT7jPPPjZ3Cvg2Dm3T+iX1fQ3rEbu/eH3BsZBeERXuC/Uxi5GtjlVg/8d7vSf6fD//RXY8dsVeXn/hRH4Ec4I76W7zvF7jhSxtESCrrd0fT75DWvMkvlGcNZTfEbbKxefX3J/IB332P6RG4BxkaGqIbb99oVn9oQxU8vUafwK431JytlHrQS8gHxWTh7u3Dd84egdeWn/IxEoEc4I6RG71Pl3n7EHveZOP4cTvzJkXNWzWFVQD0L2lC/27s9370Y1Q7wePlIwP7FNUja2ML5Kp3XsUfXPmgfQQmT2CMvKHdra60FDxu4D+YoZ95bOq+HTmD8si6rcfa2eYAd6zd8b25Xgtk4LOvrBjRuCC20VCowssEZff5lN++c+ynn4HhTJrpoOpU7s2J5tsclAhYIEOXD9GN6zfaDbAhGFuhzjdgblKcnmgN+Rlv2c+D4t8efd/miYPy/PlB8wgcoAjkAHeAAnm0HQbLlI3EOzm28qJERe+l1ApO6E9W1Ho/zYXc+oM3/eD/b+9MoOyqqry/z3THN9ccAhkIAQokgTAYRLqwxRAUZaoIIogTdLdLXKKuT5fdzcMetNVuaflQQ6sgKrYpQBAVoUGKIQYCEchQEAghJJVUanz1hvvudIaP+yog+CEdIamkKueu9VYN795z9v7t8+7/nXuGPQ493bizD0jfBhDQ05PkudHH9CCAkoXdSe9s/o+OPzEAeX4I8acgQqMQoTsMj15D6qPbtxS36Bm10yPe09YLLXDTNrRv3bF5xZMyOAXHKBR9IZLhiYhgP5vL3RmJ+GcjUXX9cMtR/uw+l82GLVwvAH/rvPdxCRPJyJM7ggKYd8U8I25nBdVmXCIZ+iAnaoGqqN+AJ346+PkNP2/YOnH30Bst7+PA6er/PAEtcLp1/HkCCtA7r13aHMXRkjFRuixm4mScxr4Q8lsQwi9evOKpJ/54S2yMyeFisfh6aa415f2YQBK3XujFLdCCezaA6DwKSGRvbA2leL+Xij6ITbo4Y2YY+PAptdW79YV/XT/U1dVFeru6JEykVdKHJrBfEtACt1+GZf8xKtm6K5fyOsb56IWRwc/2jfAkyzbWm5Ten+bWr8AMH3n0w49Wd32T3/X9f/+xfx9bMlV4NB5Jdm/oRsPDw6j/3NrbuFJnBNI/UxhwBCK4bkvrDhLgm6xVtbV9PX0RJOvjUOP2oXtw+7iR6ep1D063gbdI4Nh/7jq+bvpL66T+QeayWYBgpwzFQ2DZd4uAPC/K0SB2Zo/0z4QIlu1343Gv/iK3N2/IE4KWTNLo6cYbkvFJOIrvJ72c109UWgScTCTxW3AmkLKl4pcLhLJ3IoLPQpQeoRAaBqkepGNqOZV445bik+NvsSnpyzWBSSOge3CThnrqV7Tw66ceJpFcNs78Cz3pz/dlKArZli0owr8Pq+qBlJ1aFbl4FDIVH/on/KV5U8GLe8b32a9TTJKr5Y0OngmRrDQ32jnOWMqiNZk1h2R6IK16oVfCVYkcveVeSKP8XZnQ1aLli6jP0yb30xa1q0F9GPZazrQ/ZfLneCQcXonHLmBRVMVWCZiRIm2xEp0SxDuqUf3oGPgRGOMZhXRTCUL0c38nX7GDPL5KLwnYM+1YlzJ5BLTATR7rKV/TouIiJ3bdtsiWpwdI/HVA+Ns5QRnFcR0pXLIoK2OJt0MM40hKThRWKlZScS4ZYEUBN/o3MhKA2cTzLZn0d5IjkZnk/eR/yc/kV6VQ8gNJACoBmALAyYiPlCAIalwnMYB8pRXL5KmZUgqQIEpJjLAggGOsgINMMlDXCagyITCAJeq3mdqKPDwmwjGvr9j3ZjaRRi+L2kTPTaHOq5cxnhltEZZq5xzaXcWOJAo1q1hgoST16z7iPELZbF4pKSSPeQMCRgghBajhXyLGE0z+ePxpHzQ5L+JADAoUE5AggUsBQsoGE2xS8CGCEGLgDIA4BpVMoVhxgREojBQhSJpEihxGqFkK0cQ5zyIFKYta3DacrSKSPxcxfzgeF7rnNuU/vQemA1rgDsy4vyWvT/jOe+eWSXCMj/lxgYyOkEodQhBqx4Q0K6F8KWWIlBJYIkBSJXdeRQEUhuRvACUk4IZ0JRo2YcqElL18JF2qRtNsqCBWAERJoBIDUomIIcXRhDImOyXu2i2xIQgIZOP/EqvkRo8kRihK5A2DUBhCkNKL43CUYRhpzmaGDEwGcKyerg5X1ppcDr4idMWXNGZivd+fe6T50rhVEXVBL+69qlfMv35RE1byMOyYJ3BM2oNQ5MvlWs4Fe7YBNIekwghhHHOOlZJgWqaSUikpZcO/ZEArkWwkZaM/mfz1x2eKE6r3WkMkKCkA4wlIDUOVaCRmk8k/CU68TuQNJEGAKCEJC8AqOUUhpZJvG4xJcClKsMmaCOOdBPCoazmbsun8k96Q95Colfv7in21t9Rg9MWawD4ioAVuH4Gf6tUmk0+iQi0LyD8qpOLYmPIFAov5keA5CcpASKnkFo1F0utSQJLe1y6xgldWzCXNb1dPriFnfxS4V/3REICGyCWCuUtzkl6K2CVyr1zVEAoAJZOTQSVSkdzkIyUQEEQwBiqEoDwMDZNSsyWdsyhCIyLiKyu16u0Iqcd9zgfePXdR44be090jGwUWi4mYvTxbcNc420RvrQ7DTlzwU0hVjqEELWEp+0JJcMaPZDReKoeGogFDjBOEFSI0UbkJcxMYiZ2JzXiXmDWUeWJ344n+6S7xbwzrvUrgkm8JSIDEyZPP5PXHk5PebPJlQUHymmCaOCGTWGCMklfy5UEICSCkYohIQ8Eo5bCZhmItCcnzJod1a/957cap3ka1/ZqAFjjdBt4cgV0TKVaWApPBeBYwyiEZZYJQWBzFiCMhmUweKiaPFxVK7sP0dWoimO52G6Qvj2TRidv6nx3YSp76yTjGSHFOuIoQYgalOYZwq1SywzbNOQSh+XEQHlUPam6oIi6IGDKxuRJLdkvayz6w6apHq4msXH755XTdESW6pHJUWIQiJDMNe3Ytap/5H4sLmKsjpRt1+1H15JjX59quw5QigyJSL8hAbWKIrDekMYgAc2yQWEolEkFr9MikQkiJ5PmkEoAk4lIKJUXCqXHOqxx85dfkTcwVcA78FSDxa8kyBhDTRvl8F3QKBGOFKVGIYmpgkXQAFY8VKN8SuMKYqLCQ1xVREfFJ+CYf2b65tqSv0gT2EoHdvrnspfp1sdOAQFexi26ZBdSpAw2qVZK4NO5QhX2qpM9R4Q18lBbfK22wGviCgS1xZlCFlQzJp2wrBukSTFOpgpXjkWr1q97BXr0+Ayy1QDloQci576Ryz2VSzQ8GY+HNEMB4h2oJZ84EMdw3LFs6W1RP31EKriqqI2489egIqVMCxE8PPe8oiGKbCD5CMF7NlVrPudqCOBmlgg45wvYIhJIZlqhFSV/2tfsTYxMrHBKFfaIqqrZb68qQk5Qz/AZkW0DVxR9HJx2BMpDCHGKsDBchiyha8aVfk3FTisd90PfSbM/GE059aALThsBeublMGzrakWlLIBFlALAGud/BW+N3cAfOHPMrC20322GaqR11X3yHcrWS1OXmNjeqNmZdbmhRs88cZnkDt5XD+rkxgQ/ERJ4a1vydNIb1WW6uFF54Px5Hzzz/zbWJ+uzNJQnTNjbaMU1gTxHQArenSOpypioB1FnsdCsWmROZ8lKfojOkQY9kliOpQl8kEt3GxsVAf2VVmPRwOm/oajcsOG/Ur1wcKnGiACxZTG4xOL2tveLe50SirLctm6pNQds93QhogZtuEdX+/CUE0KLLLqNlcxsen7nZoIwcooh1tmD4/bEBi0zb3MgMemsYyO+2mqOjqpLrCMA/tR4Hf8eFnI8UHjGQewdgdA8RRl+rEQyvuXzNa2d9/CXW6HM1AU1gjxLQArdHcerCphgBlGSrbtnQopKJI93d3WTN4h3H+ixeEjL+QWWg2ZjBBttiP8g46cfD4dIxYRSe64v4PcChH3F0byZI3QBIPrv5i2vKU8x3ba4mMO0JaIGb9iHWDu4WAQVo6RVLDb/JF88XqrOAoI+OxuNnE5t25JpS/RnDvdUrVxcFfvg+jrFPJLnZEsZ/v/i3q3+3W+XrkzQBTWDSCWiBm3TkusL9lADqLnYz2ADisTOHGY6qrUEUfV4SeaYyRAe1aEko5YSRknGI76US/cwF++HtI2eWGv7oLAr7aVi1WQcyAS1wB3L0te+vIZA8okyyWDemyydZza85/jxhxhfETJ0tTJGsHYu5QE/7gfpnFavVwXjrDij2vjrRq541qduUJrAfEdACtx8FQ5uyfxE4+p8WHRrmyHnSgCuqUG1SCJcIGA8oIT4zOLh25H/Zymv/ckZbowkcgAS0wB2AQdcu7wYBBejwr78jJZBaHIG4eDQcfqfFzOfaMs23giI/6ftUr96fcTcw6lM0gX1JQAvcvqSv696vCSSLwXeaMFMCP7amvIWE4IEcyTwmas3r+oo9byb7wH7trzZOE5huBLTATbeIan/2KIGuYpdVZWYepXE7SFXn48Hgk9Bb0dta7VHMujBNYK8Q0AK3V7DqQjUBTUAT0AT2NQEtcPs6Arp+TUAT0AQ0gb1CQAvcXsGqC9UENAFNQBPY1wS0wO3rCOj635BAsVjEGzo3NNppz7KeV685m7huV+rvXZlQNU1NQBPQBF4hoAVON4b9mQDq/o9ua7gybFKLqnuDU6qvyqwNycLsze/ejFvDVnzXp++KtMjtz6HUtmkCk09AC9zkM9c17iaBRcsXsUzY0Rm7MDeweGFHfaxOHcIJkyoaH8UZy8QE05BJZ8wX5ou4DiN9n+r1dB623QSsT9MEpjkBLXDTPMBT1b3k0eSj8Giq1qTeXzaDd5SRP6+C/RgbwAlESgQ1bDMDUaCeivGgRMYzSpobEDGe2/bbGYPQ05Nkp9ZbZ03VBqDt1gT2AAEtcHsAoi5izxNY+umlZnwQaatmwr/ZEu5474gcfxttdoALH1QcAgUFJsaABQLgiJtGehwj+3cY2bfjCr6jkaD0qsYI3e6KXPJZ2N1z97zDukRNQBPY4wS0wO1xpLrAPUEg6cHdnVmVq1neZwfV6AfK2HsbsjCYtjHOMK6pIBauYbeAVHYcxaAkjoVAI0qilQZxvmqQ1Atb3JZq9y5jevqOemkT5WLSq9udiSmou7sb9+xuL/DliS5J2W8kqEqhrt6rydDwBtzX3RPD1cWJz9/Ldu2yrevqLhMAeO9VveJV5SEoFlF35wb0Gl9ehq0ALf5Wt5V7oSbvuvauKMlz1wtd8jVl74nA6DI0gSlEQAvcFArWgWZq53VdKU68L5Rw5ewaCY7BDIPrOqttZq3ltWDQNVI5Ifg8PwiPjnjcqhQwQORpg1jXSEz/Z9CatfVlgdtcCkyKUdrHUY6jMBdxbsk4Eg4zpYVxJUWckVhSj82t+L2n9YpisYh+3/Z885gq50MIUlbWEZSx4TLA8IbuFTFCSHXdcKlVro0VUJZkqyQ0y1xKR1oVU8rRjR//ZXVCu4r4N3OeyiOGDxqN60QwJqiitczhzdvO+tUMkcwQ3VzajE27Ke9V6rk4CnIYk6ykWEpq1KmTGo98b/jZsL8KYx+Ou/4KcO8DILugF9cNklXNTjsiyC4FdY+U1VATCaJqxrV9XJ8jFEpJrmodkVi7pLIkLL5aSA+0xqT9PSAJaIE7IMM+NZzuvK4zFTD7CyVcPdsnwTGmaYGJ2fUuc346S7h/6E/ZcW2g/11c8ssjFHdhQrIUkx2UmL9FBL47cMETaxJPO3s6mVvrmBkIeUSI4YgY4rlS8jyKQm5jg1OMt5iIPUWQswUj1b/qE3ePJded/IPuxfXQP66uvEONvBkgjB81ZH1l+lkY7y32ikXLl7RHyjgxYmJ+Hcc5H0Scio0tBmOPPHvpnRuT3ld3sdvYPNc7NsLyfWUZEqlIiRnmxnQc37f24nvqXTd2mbFkhTDmC/3YOzwS8WzCSAtXlChCy8QyNnMrfiwg8jnDY0NN0XyxZmCG6GzpdViIO1HG7JIIOiIJ/ZGB7gyCwcDguJMycjoXaI6UaFuuZnyjbtvDm664K5wakddWagJ7hoAWuD3DUZeyFwgkAlenzudLtHK2h4MFhBhgIPJvaZK68bILz3q2CEU15+ZjD/EjdVpVhV9RShyMMRpKW+mHMcHf3N535qOLO+82vQo61FPhEh+LM2oQHhoj4aooJrgeKIaoYoTVTcMayFqF1ZSYt6z98L0PA0Jq1rXv/lCVV86pyeopRpOpqEl6XER+mMW1p/u6N8Szv3/6SZjAF0rB+JG+jLISZFxg+RdNaVzfPHjoL9YUr68vvKEr189Hl4VKXBVziZgynnOxe6+Do29vvmxNZfH1XYdLhJaNBKOne9I/JEiGEy2bcomQkEpgikMnbz9rm+whs8p+zUP+zMaPr6wec9N7WhHn793qDV+AbePothkHj/t+/Xsjg9scFYVLUq47L+aQEjE8lfMzXwKDPbPls73jeyFMukhNYL8loAVuvw2NNqwhcIbzuRKunFPDwQKME4EzvpZTqRu2f2T1s2ctP8vZlg/mV0n811XhXelVqzNEEA025ZruZwr/Z5PH14am2RHh8CKP++/yVHy0T1QeENSohLIdQ40qaOFKuByBzLpN2yxwbnVk6vZ5lvvEY2Njp5ehdpEP3oeVLYEw9FuXmjcyG93ZsQPicjp7BmD47qhXavJ5aCGERRanypYyvnGw3/aDhz7dM3LQzScs8HlwcQziShEqMCV7JKucFaZBvj/TtzpqOD7dJ+HHSrw8L8AxlQYZY5azQwnAnIu8BD5X4qjMMHoyK51fU5PcvPHCJ3Yc+eN3dhCEz99cG7hEGeS4QnN7FIXBY1GlYkIQHmZSw5aSSqXw6pyf+bITyafXfenhiezj+tAEDhACWuAOkEBPRTdbrutMuYb1uRKpnl1DwUKCDbCo+X/TVvqnpkg/3ZJyD/K4v9iX4Xu9OHhXvVTJ8nq4tSXXfKtJjB9lOR0MwD/OI/4/etxfUBUB5aZZZpSsdyjbVFBuScbhkeXYO7ImwrmOnYEUpB5JifQt0spdK8LqnJqqXRyq8MueKgMh6KmMYd/uI/KtWV4a1Yz4PEng+zVeFxyEIogA8oGYwrymA3V8b/WOBZsOOuw354Uo+hAHfjYOEJiS3pGFzA9qleje+W72fWVVvWhMjH/ANyKQJtpEbftRy923dSEAAA7kSURBVE2vk1yhyA8O5Tw6o1IbbqYKyq1W8+NMsOJcr33dlnytoJg4/8X6zktipI63nDQQiYDGsk5CXsIcDQEyxgmwp3I167+UTbbqHHZT8VOgbX4rBLTAvRV6+tq9SqDRg2P2lSVaOsdD/kKGmbIM+5cpJ/Vbhqz16XTTSfWg9q5qtXzq2OCIYwmGHeJssAn9GlbkgeaWTJrH0XlD0cjH6iKcFUs5Tpj7ICb0pkzWWmkKxeVAeGQ5HV8cMX6ZF4WQotmxDM3fzVH08UKQxoGof0Qqft2oPwiGSXfkUun7UEg/m5e5luFweJnHa1c7TamamXEjwAT6n9+RpaGxYgZru/HI9qb7HuUvfC4S0QURj45loQFYku85yvr3g4fNLfjw3N/vrA9+5LnRTbPzM5rAdKyfKWx/lSpzm++MxZl66jAG8LHtIy++lwGZ3eo0jaTC7JdTded/ds6ph+DH52+p9H8kVPx4ZlhgKgMcZT6dVebvhC/u5zHeBBLtbJe4smrVzAh6Xmers70aQV24JrBvCWiB27f8de1vQGBikol75RguneMRbyEFnCxse0HEaqsK4zGnuf1gishM5YWtvOqDjawXXZq6F4P4uk/RjgymR0oUXzququeGIp7BldqesZtvMJBx25wXzHW9nb3qkJG3ZaqZ6IMci8/WeTDLImls49RDBtiXQsUbbcHWGUKpfxnno7MQBTAM9ghgfEFetHaWguELytHYJ52C+4Sby+xUQNnOrcMnM2muytD8zTlc/+nOtPpGEAbLAt9vLaDcgAHmtShW33NyWSFx8M0a9y7ZGQ05qXwabNt9MMvyt3olr24REtk2LSglTxkc618cB9EMUxiVJtTxzYzK37G1bfsw5bh7jJcuCUS8KOZSpUhqsw3GHc3Kujmq0gGCWaV1GIJe6H1puUBjjZ9e56c/cQcUAS1wB1S4p5azyTKBiPhXjpKxczzqLTQpgzDgfhyLiABFTq7ZoQJLUg0qOIbtFjIfc5h9H2oav61vWV90yPIFpwCIK3wcnhZJ0SwFvNCanvE1B5v3HsEKLz6xs0Y3jZ0Upw//yfuUFFfWuX88Acs1wFmdwZm/dZHaVKhYC2IkrhiSI12SqmbM2DqWylziqvQJFW/onFJl+3uclP0zN59+GiR1hwdKn7BZaiDjNv0qwOH3QlL/9zAIz4oqATmIta92ifVdA7weyZzcCK1fE6HoQzXiAWEEDGxtc2T6udCLFMGIM6IMQKLN98cPFkGUxhGpdVizlxes5ls24ee3YUa6q6p6cSii44IgFlmauctB1k3bP/pkz9SKtLZWE9g7BLTA7R2uutQ9QGBiHZx/5QgpneMzf2HKTUG95pfDGIW2kzcKbp4aAZRgtP6shYx7MGW/p2n7GajuKK+5bA2fcf3RpwNWfy8sdUzMZVbGaFO73fGPrumsTHvNQ3UsXRFYlc25e0+XSl5R9Sony5imsTKeaLba/w811RNzas1tYRyevynY+jFh40NIynk+m2r/V2qwkyqVoa6RwU1z7bR1dS6TezQuR4XRsdLX803tZq6p9ZEQ4uXloPQlHkbvVB6vz4CW29KQ/rE3x3yAjHgzxvDYv8U47g6NGCLfVyQ2hCHTQsaAACRIiIFHAVAVKgMwOMj22lOzbsqbhVs2km1bkRTnl+PyhyMeHcdjGWdx6hqXpG/p/8Tjq/cAfl2EJjDlCWiBm/IhnL4OJAIXEP/KEhk/xyP+QsYYMGTeT7HdS7D5VIqkbCOQ1bjk7TBMd5QIszqTy3ojswAAzP3RCe9SSn6hDN6JkRAuCPRMh9n2lZRprXqC5AY7AUhf31G8+aifnimV/EwgwreLiKSUYE810+Z/MKm7emaV4oqM374DD/1LHcIjBUODTR1zbzUoXRTWxt9W3rmNGRR9Ju06D0Y+auVx/H0j5c5krvussuhPh6uDF3I/OoaEUO3Azf/ZBOnbxmewPlEqt4/D+DdiwrtDGike8pKhjPU50rwWxdRhBCOMJPA4ABT5dSYAGdQGF+cftHD68e3p0TpG/Nyd5YGPRHF8AsFGnIX0d/Ikfeuh1eNW3zV2bQxFmNi5RR+awAFKQAvcARr4qeB2y3VdKZeFV47h8jke9hciwsCh7o/zRv5nM43Uw6PjnoFrInxldmCyZdbVL/V+Jm7s6OgfLl4sEPzNgCwtiaQoYECbZ9j5b6cM++4/LOvdBI2ts04jfeODF0olvuzzcLbizMTK+kOWNn0eGF3bVCNBJIK5g2r0G3Xpv11QhVvaD17HBJsDNb9djlV8IOoSwHA/MHMmFvgnyCZHIhOXhKFWDdfGFvGItxmSDjWTzFfaVeEe4Y/2j9tmfoSMfi0CfmFIYosSo8oQu62AWn7IODOSRe002a9LeIDqcUghBgMMgqW5Q9iFwVF3i00FPnf7+MClYcRPwGDGTTi3PE9zt7j+Yb9fc/n1XI+5TYVWrm3cmwS0wO1Nurrst0IAzfv2SekoTT47pipnexAuRMwCC1nfKZDUTf0X3v/oawpPxO1P9oE8/vvvOTpG8bKtauTiUAWzEMjhVpa63WJGj5Nxn4yQK6J6NVcmox/lEH+pFnqEoFRkktRKl6Y/E+Rhy/ADELTNHStUwP9yLIKliMKcQlNbGVfBNWoKZ+vmiCLqQ+v+btUDs2/omk2R/KFk0SLOYpNTOTLmlwtcKG4xc5NLnX/Mk/yqZ855Z2nRr9ZYm0ob/yEC8eEQ84McxwVK2Y2WQF9psu2KFTcHrS9wkWpP4aAUuBFEbKwcqrDdqBYOjsIXxqot1EDnDVSGPxKE/HgljLiFFv6rycj+/OmLfvfgWwGvr9UEpgsBLXDTJZLTzI/uFd3kiVqtIKl35Sgvv68ig6Op6UAKO99rtwo/evq8Ox9J9nksFov//+zAXWJ36nUfOLiG6n+1VQxdWRNeJ5e+zFDyYiGTva853/JUCEa17JWP8WTl1EB5J9dqVWRbuY1pt+3XiBtf7ZhfLfubfVSH1kINlS6qheXzuBRvT7sZKccjbHts9FA680kE8MWH/+6eNYf/4B0zBGJX12X53RGqH6JMGXkyZoDJgGO7DzPC/nVwEJ6BgTVi3olLWTQ2eoEvgg9Whf8exDCmBD9rG+YDeZZ+KAvWM07FHrclpFWMTowjPqMehT4G+ovMfLRlfbyziQG+YLAyclEYqeNA2LyZ5v8rjzP//fSl92iBm2afB+3OmyOgBe7NcdNX7WUCXcUuOtZmFAJLfKYUl88qC+9tQinIGunvz3Rbb1p74a8fauzdP3G87vT3rm+dnYupnDeASheVglJXoPx5jo2VaZs7EGOjoUKhELyVS79NiCCnhBw0jdTd6UzbHaQF33PCcEs83DeMtnZW3UChM8dqo5fEkp+Rsh2QNQFmSF84xJj5a5DwnT986t6n59/c1Sxj/IlKOHJ+pPzjwFTKlzEChNdnrNQKTsRNpe6+bQ2rV3TjI6LBzqrnv6cW+pcENJijqETEUsOua27lnj+KQhHkjayBynKGBbaRdgs7CIavugSvG8xXcxzoRQOjgxf6oViohMWbaeGGAkr999pP3vW7vRweXbwmMCUIaIGbEmE68IxsCJxrFERaXlZW9fd60js6jKMozZyfdLitK5689K6V/xuVy5Zfxgagmt3JveMH64Pv8sA/lTlojjIgzQkYkVIEU8KBh54MgyGG6R9MZt7p5poe2HRu7w64+iXpvApUslmzF2aPH/VGLpYgz8+46YKoS4lieKqZNN8IGP+y7/J7t877ydIMQWpJpT58qVDhu4mNWT3061zKB1Kmcz2L5UP9n9jQ2Mg5Oc5afpmz3lt3dD2OzvUN75TYjGcrW2TsFHNlGGIUSZUmjuLluG5Je2dbvn0tJuhryiisD8zxPJbywsGxke4g4guUsnkeZ29KqXTPk397e+//xka/rwkcCAS0wB0IUZ6CPi5afhlrqgznh4h/fsii07khDgdChg2Bb3c8cs9jV9694S9wC5307aXJhshdFeSdJSw4IjJUmw/KzmeyNUOijariPZTC1m8YiHWPXdo7+JrxvGIRdy14MvPcjv73E4Ne3NzSdEpUj0MeiIfyRss1YIgnVi3rGeu6/1JrbLDSKXn1kwjJc5lFmquV6nNhGN2ec5qWV0Q0sOWjvcGr7V78H902kqI1KNSX1HD1HR6pHSsNfhhGysICJIkgIiF9nkXkcZu498Whec/6z9w7dPKPl7QkGQpqde9cocgxmLjS4saPzNi4c/Wnb338L2CjT9UEpi0BLXDTNrRT3DGl0NJrzzTGFDkkAH8mp9CUTJwHop7JUGfLyl351nbXy67rulPj0XBzjcTt0pLNAUMpH0mST2UDquQ4HguHbKZ2VmupyuuklUFLf/Npo+/5R2dgi83Mt+RzsRdj7qtS3nCfGbfoeN+ynghWdJOFLE7Lmj8XIT6D2Qz7lVoUh9FAGrU9t2ZgUfDqBKTdK1YQ6Osj/ZkNRKSD9ioZz1eol0NYzCBIKgwQEQ6RilAVR3jMFrmROjTS3kTzvr3UyGbjNj+KZylFmjFyiM3ZM6lA9fd+9nadNWB3G4Y+b1oT0AI3rcM79Z1btHwRa6o0GXXOjFgSg8equqZ4Z/3NeqaUQqfdeJo5VG+h0AJQ6QeRqYBYBkfxN0wImvTioBcn9XZBl1zRuYHO2llDqfYU71nWkyxLmBgHTJYeXH0aqXZU0VkDZyUJTenmUl6tufz6+E9t7u7uJtDdDT3Llgl4acJM4/0NG9CiRaWUn+ZilrBjf8wXu7baet01bZ0ruo2ZgcXKWBLuub5eHvBmW4a+bjoS0AI3HaOqfdp9AkpNfAYQejP7NKIk87fOlL37uPWZmsBkEtACN5m0dV2agCagCWgCk0ZAC9ykodYVaQKagCagCUwmAS1wk0lb16UJaAKagCYwaQS0wE0aal2RJqAJaAKawGQS0AI3mbR1XZqAJqAJaAKTRkAL3KSh1hVpApqAJqAJTCYBLXCTSVvXpQloApqAJjBpBLTATRpqXZEmoAloAprAZBLQAjeZtHVdmoAmoAloApNGQAvcpKHWFWkCmoAmoAlMJgEtcJNJW9elCWgCmoAmMGkE/h/viBYKKPsIrAAAAABJRU5ErkJggg==;" vertex="1" parent="2">
                    <mxGeometry x="470" y="60" width="280" height="143.19" as="geometry"/>
                </mxCell>
            </root>
        </mxGraphModel>
    </diagram>
</mxfile>